<?xml version="1.0" encoding="UTF-8"?>
<svg version="1.1" xmlns="http://www.w3.org/2000/svg" width="512" height="512">
<path d="M0 0 C1.64533238 -0.0169307 3.29061704 -0.03950849 4.93579102 -0.06793213 C7.25511184 -0.10363168 9.5728927 -0.11159177 11.89245605 -0.11148071 C12.9426165 -0.13287865 12.9426165 -0.13287865 14.01399231 -0.15470886 C17.32247836 -0.12409149 19.12242932 0.12754034 21.80407715 2.12875366 C23.37207638 4.28386412 24.15724815 5.77886288 24.79870605 8.34164429 C25.09515015 9.50421753 25.09515015 9.50421753 25.39758301 10.6902771 C25.68701782 11.94469604 25.68701782 11.94469604 25.9822998 13.22445679 C26.29590454 14.55621948 26.29590454 14.55621948 26.61584473 15.91488647 C37.92451183 65.76212827 30.5366376 116.29990445 4.4197998 160.34945679 C1.33727647 165.20530197 -1.97053996 169.87226477 -5.5802002 174.34945679 C-6.27500488 175.30078491 -6.96980957 176.25211304 -7.68566895 177.23226929 C-12.19280259 180.52898512 -16.16855424 179.80656475 -21.5802002 179.34945679 C-22.82414551 179.24584839 -24.06809082 179.14223999 -25.34973145 179.03549194 C-29.60172385 178.64782759 -33.84072619 178.16701061 -38.0802002 177.66195679 C-38.83242859 177.57298126 -39.58465698 177.48400574 -40.35968018 177.39233398 C-68.16776306 174.04946551 -91.99469386 165.79589439 -113.5802002 147.34945679 C-114.38973145 146.6855896 -115.1992627 146.02172241 -116.0333252 145.33773804 C-127.46413777 135.61435816 -135.71322844 123.58055568 -142.5802002 110.34945679 C-143.05070801 109.44969116 -143.52121582 108.54992554 -144.00598145 107.62289429 C-146.65375619 102.19618567 -148.5399874 96.62059024 -150.2677002 90.84945679 C-150.47032471 90.17358521 -150.67294922 89.49771362 -150.88171387 88.80136108 C-153.63412525 79.17997811 -154.94176276 69.79112538 -154.9552002 59.78695679 C-154.97969238 58.82338257 -155.00418457 57.85980835 -155.02941895 56.86703491 C-155.06760498 47.42871953 -152.4260304 39.1610346 -145.86193848 32.21005249 C-137.35884333 25.2763816 -125.94697694 21.82015966 -115.5802002 18.84945679 C-114.94257751 18.66346924 -114.30495483 18.47748169 -113.64801025 18.28585815 C-88.6267922 10.99034613 -63.38421408 5.84048201 -37.5802002 2.34945679 C-36.63483398 2.21668335 -35.68946777 2.08390991 -34.7154541 1.94711304 C-23.18664398 0.37730757 -11.62053603 0.11421408 0 0 Z M-83.5802002 54.34945679 C-84.17091308 57.36581641 -84.18500636 60.28350395 -84.1427002 63.34945679 C-84.16654785 64.14351929 -84.19039551 64.93758179 -84.21496582 65.75570679 C-84.20414573 70.08374228 -83.96883043 71.84895795 -81.23254395 75.37289429 C-78.71038937 77.54220116 -78.71038937 77.54220116 -75.5802002 77.97445679 C-71.4509521 77.11419677 -70.15955535 75.67128855 -67.5802002 72.34945679 C-66.88286309 69.32668702 -66.92492496 66.43862152 -67.0177002 63.34945679 C-67.00674316 62.55539429 -66.99578613 61.76133179 -66.98449707 60.94320679 C-67.0339098 56.9901888 -67.31925507 54.79140762 -69.36535645 51.32601929 C-71.68758576 49.25362416 -72.52510252 48.66478691 -75.5802002 48.72445679 C-76.5702002 48.70512085 -76.5702002 48.70512085 -77.5802002 48.68539429 C-80.84741705 49.77021238 -81.84591081 51.41217018 -83.5802002 54.34945679 Z " fill="#000000" transform="translate(270.5802001953125,76.65054321289063)"/>
<path d="M0 0 C6.64067193 0.04206707 12.79510288 0.73306902 19.26757812 2.20092773 C20.24678223 2.42127686 21.22598633 2.64162598 22.23486328 2.86865234 C66.22093595 13.226663 105.99861702 35.00956241 136.76757812 68.26342773 C138.78973389 72.30773927 137.31685195 77.43744292 136.06005859 81.61547852 C135.16719727 84.04737084 134.20703538 86.43693528 133.20507812 88.82592773 C132.66935181 90.12856567 132.66935181 90.12856567 132.12280273 91.45751953 C116.85423206 128.01970117 92.93833334 160.80421639 60.76757812 184.26342773 C59.72214844 185.03041992 58.67671875 185.79741211 57.59960938 186.58764648 C26.44588083 208.76290916 26.44588083 208.76290916 15.70507812 208.06420898 C12.61116768 207.22078925 10.95396549 206.23695487 8.45507812 204.26342773 C-2.62035517 196.19206129 -15.00064684 190.64426492 -27.80810547 185.9140625 C-28.61715332 185.60911865 -29.42620117 185.3041748 -30.25976562 184.98999023 C-30.97898193 184.72782715 -31.69819824 184.46566406 -32.43920898 184.19555664 C-34.23242188 183.26342773 -34.23242188 183.26342773 -36.23242188 180.26342773 C-36.85673242 174.02032224 -35.76382941 170.46802088 -32.23242188 165.26342773 C-31.39582338 163.94730942 -30.56391754 162.62819838 -29.73632812 161.30639648 C-29.31496582 160.63656738 -28.89360352 159.96673828 -28.45947266 159.27661133 C-2.3680448 116.46922691 2.93959928 64.69779586 -5.98242188 16.14233398 C-6.18867188 14.98604492 -6.39492188 13.82975586 -6.60742188 12.63842773 C-6.80078125 11.69741211 -6.99414062 10.75639648 -7.19335938 9.78686523 C-7.24463616 6.47438502 -6.15561076 4.90894108 -4.23242188 2.26342773 C-2.23242188 0.26342773 -2.23242188 0.26342773 0 0 Z " fill="#000000" transform="translate(319.232421875,79.736572265625)"/>
<path d="M0 0 C0.74765625 -0.0721875 1.4953125 -0.144375 2.265625 -0.21875 C7.96644744 1.43054454 10.92204674 7.58784949 13.6796875 12.4765625 C14.67514762 14.35217334 15.65634472 16.23540644 16.625 18.125 C17.14529785 19.13626953 17.6655957 20.14753906 18.20166016 21.18945312 C25.01784042 34.69960701 30.14923438 48.51481912 34.0625 63.125 C34.29308105 63.98158203 34.52366211 64.83816406 34.76123047 65.72070312 C38.69391046 81.28960821 40.30754243 96.72532989 40.1875 112.75 C40.18512329 113.59285553 40.18274658 114.43571106 40.18029785 115.30410767 C40.12011518 129.00165095 39.17216583 142.18130056 35.75 155.5 C35.5845166 156.1703125 35.4190332 156.840625 35.24853516 157.53125 C34.02071289 162.33740443 32.71306951 166.28200033 29.625 170.1875 C22.07009789 173.63647705 12.43944539 172.67184494 4.2890625 172.703125 C3.10444427 172.70882507 1.91982605 172.71452515 0.6993103 172.72039795 C-1.80689617 172.7298075 -4.31311479 172.73636575 -6.81933594 172.74023438 C-10.55167043 172.74981183 -14.28342239 172.78082083 -18.015625 172.8125 C-39.97245633 172.90983894 -61.667759 171.11976275 -83.25 167 C-84.91289062 166.70029297 -84.91289062 166.70029297 -86.609375 166.39453125 C-89.83195716 165.80069862 -93.04135606 165.16481829 -96.25 164.5 C-97.90128906 164.16162109 -97.90128906 164.16162109 -99.5859375 163.81640625 C-100.65070313 163.57792969 -101.71546875 163.33945312 -102.8125 163.09375 C-104.23755859 162.77954102 -104.23755859 162.77954102 -105.69140625 162.45898438 C-108.72930347 161.32035267 -110.20189414 159.99539668 -112.25 157.5 C-113.33984375 154.21484375 -113.33984375 154.21484375 -114.1875 150.4375 C-115.35791507 145.46851759 -116.75661908 141.09265233 -119.0625 136.5 C-120.70857803 133.07024609 -121.25092822 131.47076096 -121.375 127.5625 C-119.05406782 121.24440685 -112.09967377 118.62060148 -106.5 115.5 C-79.41615673 100.07011608 -54.3275625 79.05445848 -36.25 53.5 C-35.76869629 52.82001953 -35.28739258 52.14003906 -34.79150391 51.43945312 C-24.78402732 37.14580995 -16.26190878 22.10736576 -8.76074219 6.36083984 C-6.4514973 1.58618708 -5.25821571 0.35770175 0 0 Z " fill="#000000" transform="translate(472.25,175.5)"/>
<path d="M0 0 C0.69762451 0.18151611 1.39524902 0.36303223 2.11401367 0.55004883 C17.35429131 4.70552571 28.82758596 13.87144016 37.125 27.3125 C38.92258625 30.59199881 40.58705115 33.90387298 42.125 37.3125 C43.341875 37.085625 44.55875 36.85875 45.8125 36.625 C48.75880064 36.27623296 50.07223828 36.29374028 52.9375 37.3125 C57.04024997 41.06358569 58.3952339 46.97726746 60.1159668 52.16088867 C63.68170348 62.85559907 68.52912075 72.62982103 73.86328125 82.54296875 C75.56904986 86.28721007 75.28464316 88.39870433 74.125 92.3125 C69.75202446 97.20521444 64.79017316 97.15544593 58.625 97.5625 C57.21927734 97.67851562 57.21927734 97.67851562 55.78515625 97.796875 C51.55261075 98.1330772 47.37224881 98.34842953 43.125 98.3125 C42.95677734 99.37404297 42.95677734 99.37404297 42.78515625 100.45703125 C39.92170833 112.84271426 30.5503452 125.17428065 20.125 132.3125 C7.49861597 139.73916971 -5.77254462 145.27499255 -20.68359375 141.625 C-29.81911586 138.28782297 -34.81848184 133.41940284 -38.9296875 124.6796875 C-43.59592359 112.99481532 -40.0670644 98.29921587 -35.625 86.9375 C-33.06933137 81.23218471 -29.67253255 76.25914183 -25.875 71.3125 C-27.31822159 68.30235211 -28.9741124 65.51235748 -30.75 62.6875 C-37.8846539 50.76169166 -43.60307847 34.56582368 -40.21875 20.60546875 C-37.15636961 10.95633054 -31.97592649 4.95649515 -23.0859375 0.22265625 C-15.52653922 -2.88925152 -7.72135634 -2.01957732 0 0 Z " fill="#000000" transform="translate(259.875,369.6875)"/>
<path d="M0 0 C2.10286899 0.43513956 4.20438921 0.87683581 6.3046875 1.32421875 C36.33837244 7.359462 66.83176596 9.5229541 97.43188477 8.93823242 C98.65319092 8.92123291 99.87449707 8.9042334 101.1328125 8.88671875 C102.20692383 8.86351562 103.28103516 8.8403125 104.38769531 8.81640625 C107.25893594 9.01726254 108.80951194 9.41128718 111.1796875 11.01171875 C113.21276849 14.06134023 113.84376244 15.92808699 113.75 19.578125 C112.45544995 25.10212965 108.53919607 29.559358 105.1796875 34.01171875 C104.54417969 34.85992187 103.90867187 35.708125 103.25390625 36.58203125 C86.83373995 57.72766983 66.87503841 73.71184194 43.1796875 86.01171875 C42.54724121 86.34623047 41.91479492 86.68074219 41.26318359 87.02539062 C25.27574122 95.3879274 1.53835908 107.11845155 -16.8203125 105.01171875 C-33.62958316 90.22062277 -43.79249915 63.97235131 -46.2578125 42.13671875 C-46.20839776 37.76351426 -44.41824816 35.65770808 -41.4609375 32.58984375 C-40.64882813 31.80867188 -40.64882813 31.80867188 -39.8203125 31.01171875 C-39.0159375 30.20734375 -38.2115625 29.40296875 -37.3828125 28.57421875 C-36.02209554 27.21350179 -34.65793852 25.85588881 -33.26953125 24.5234375 C-28.2192092 19.28735648 -25.12533733 13.29423263 -21.92871094 6.82714844 C-21.38778809 5.74675293 -21.38778809 5.74675293 -20.8359375 4.64453125 C-20.51915039 3.99371582 -20.20236328 3.34290039 -19.87597656 2.67236328 C-15.80560497 -3.73065883 -6.26804171 -1.18755267 0 0 Z " fill="#000000" transform="translate(375.8203125,354.98828125)"/>
<path d="M0 0 C3.6071932 1.96043109 4.73328328 3.25912022 6.125 7.125 C5.90272012 14.01567632 2.54205276 19.65303814 -2.0625 24.6875 C-21.27962701 42.10939646 -51.49420351 45.25792856 -75.9609375 49.90625 C-131.43670698 58.65169606 -131.43670698 58.65169606 -174.75390625 90.953125 C-181.69192425 102.34974392 -183.11429444 115.58365454 -180.19921875 128.56640625 C-174.91241615 142.50103716 -163.53811015 150.74519309 -150.375 156.6875 C-136.50412368 162.18145493 -121.92788812 164.07728904 -107.11914062 164.51757812 C-106.26126953 164.55173828 -105.40339844 164.58589844 -104.51953125 164.62109375 C-103.74714111 164.6461499 -102.97475098 164.67120605 -102.17895508 164.69702148 C-99.74145255 165.03595041 -98.09636038 165.72461603 -96 167 C-93.40598362 171.29754952 -92.52653464 176.02861373 -93 181 C-93.33 181.66 -93.66 182.32 -94 183 C-125.93445479 183.91261357 -157.16711448 180.55783838 -182.6171875 159.28125 C-191.72863285 150.55816133 -199.31841709 138.43441471 -200.16113281 125.53320312 C-200.48989886 103.98755867 -198.49745355 87.62311745 -183.73828125 70.80859375 C-158.08241664 44.49394803 -118.07348823 38.55740342 -83.6484375 31.73828125 C-82.66205795 31.54257034 -81.67567841 31.34685944 -80.65940857 31.1452179 C-75.77833594 30.17843971 -70.89571669 29.22146503 -66.0090332 28.28344727 C-57.30873838 26.59698992 -48.6826013 24.78521967 -40.1328125 22.44140625 C-39.4231987 22.24868134 -38.7135849 22.05595642 -37.98246765 21.85739136 C-26.29947145 18.53299486 -17.58631477 13.94499093 -10.8125 3.6875 C-7.8249899 -0.74225636 -5.16066372 -0.43734438 0 0 Z " fill="#000000" transform="translate(200,0)"/>
<path d="M0 0 C2.23235612 1.67426709 2.90441981 2.72061176 3.8125 5.375 C4.07750705 9.08509865 3.07835505 11.52916943 0.89453125 14.5078125 C-1.94066717 16.74089662 -5.12206452 17.3944224 -8.5625 18.25 C-9.76676636 18.56142944 -9.76676636 18.56142944 -10.99536133 18.87915039 C-16.71747213 20.31084905 -22.47360255 21.52083558 -28.2578125 22.66796875 C-29.35363899 22.88681229 -29.35363899 22.88681229 -30.47160339 23.1100769 C-34.13263039 23.83927084 -37.79556057 24.55216157 -41.46508789 25.23730469 C-55.46972944 27.92953088 -72.95986096 31.6818304 -82 43.625 C-85.178711 48.98907481 -85.56901511 53.84819508 -85 60 C-82.93586548 66.19240357 -78.44461472 70.09737887 -72.8359375 73.1953125 C-71.46810482 73.866794 -70.08984245 74.51771301 -68.69921875 75.140625 C-67 76 -67 76 -65 78 C-64.48046875 80.93359375 -64.48046875 80.93359375 -64.1875 84.4375 C-64.07792969 85.59121094 -63.96835938 86.74492187 -63.85546875 87.93359375 C-64 91 -64 91 -65.28125 92.90234375 C-67.69565744 94.44427214 -69.67283025 94.23593903 -72.4296875 93.7578125 C-83.56011263 90.4761978 -93.44668861 84.36210106 -99.62109375 74.37890625 C-104.98826048 64.14631925 -105.77361575 52.72338421 -102.375 41.625 C-100.3567897 36.32280291 -97.8597834 32.14665919 -94 28 C-93.38640625 27.33355469 -92.7728125 26.66710937 -92.140625 25.98046875 C-83.73241426 17.71450217 -72.90786073 13.59590958 -61.71875 10.5546875 C-60.94672745 10.34281296 -60.1747049 10.13093842 -59.37928772 9.91264343 C-50.4755953 7.51925114 -41.46834322 5.65339233 -32.4375 3.8125 C-29.94026788 3.29722895 -27.44339317 2.78025198 -24.94654846 2.2631073 C-23.41523166 1.94659322 -21.88362915 1.63145641 -20.35166931 1.31806946 C-19.29865379 1.10225471 -19.29865379 1.10225471 -18.22436523 0.88208008 C-17.19495316 0.67199814 -17.19495316 0.67199814 -16.14474487 0.45767212 C-14.61477228 0.13118769 -13.08931528 -0.21676332 -11.56741333 -0.57901001 C-10.76794281 -0.76861298 -9.96847229 -0.95821594 -9.14477539 -1.15356445 C-8.05768028 -1.42001518 -8.05768028 -1.42001518 -6.94862366 -1.69184875 C-4.10146025 -2.14209319 -2.42098278 -1.49531289 0 0 Z " fill="#000000" transform="translate(165,61)"/>
</svg>
