<?xml version="1.0" encoding="UTF-8"?>
<svg version="1.1" xmlns="http://www.w3.org/2000/svg" width="512" height="512">
<path d="M0 0 C10.76474708 5.96454661 21.13039924 12.60112386 31.34765625 19.453125 C31.91581055 19.83178711 32.48396484 20.21044922 33.06933594 20.60058594 C35 22 35 22 37.32910156 24.03222656 C44.44607354 29.95377998 50.47472688 31.14853263 59.50704956 31.22921753 C63.14685836 31.26493329 66.78145724 31.43037291 70.41796875 31.58203125 C71.14522659 31.60950943 71.87248444 31.63698761 72.6217804 31.66529846 C79.46963707 31.95175599 86.17679758 32.81295982 92.9375 33.9375 C94.40727295 34.17484863 94.40727295 34.17484863 95.90673828 34.41699219 C102.09754765 35.48700862 108.02616431 37.06115907 114 39 C112.33346988 42.40934826 110.41510765 45.54759994 108.375 48.75 C85.22515174 85.93344594 78.08560595 129.25332353 88 172 C92.26769348 190.21136785 99.61683502 208.13368749 109.09741211 224.2512207 C110 226 110 226 110 228 C89.88439494 233.1198633 69.72768999 235.27669091 49 235.25 C48.29080414 235.24964752 47.58160828 235.24929504 46.85092163 235.24893188 C39.50714222 235.22986534 32.25961293 235.00631312 24.95849609 234.17626953 C17.49208719 233.36904557 12.89958156 234.27210562 6.82055664 239.11279297 C5.77002533 239.97658144 4.72098125 240.84218145 3.67333984 241.70947266 C0.70897631 243.99567423 -2.53762929 245.76313348 -5.8125 247.5625 C-6.48861328 247.93624756 -7.16472656 248.30999512 -7.86132812 248.69506836 C-18.81168217 254.68630552 -30.02207053 260.06780468 -41.375 265.25 C-42.27814941 265.66241943 -43.18129883 266.07483887 -44.11181641 266.49975586 C-62.87018826 274.98076988 -62.87018826 274.98076988 -69 274 C-71.4375 272.5625 -71.4375 272.5625 -73 270 C-73.45678216 262.87419826 -72.28411889 256.69168329 -70.5 249.8125 C-70.23880371 248.78253906 -69.97760742 247.75257813 -69.70849609 246.69140625 C-66.86538082 235.866777 -63.06370782 225.41849003 -59 215 C-59.71510742 214.85232178 -60.43021484 214.70464355 -61.16699219 214.55249023 C-92.00280362 207.95689087 -121.04525314 189.5797527 -146 171 C-149.16631664 172.38569656 -151.10677387 173.96682773 -153.4375 176.5 C-176.89629055 200.47913341 -214.54212926 219.34347378 -248 222 C-250.99795835 220.66048669 -252.52779875 219.9444025 -254 217 C-253.65789993 209.88571484 -251.84230072 204.20359201 -249.0625 197.6875 C-248.66426025 196.73762207 -248.26602051 195.78774414 -247.85571289 194.80908203 C-238.02313945 171.71392315 -226.02626478 152.52394548 -209 134 C-211.93612626 130.49097105 -214.80950143 127.14675956 -218.1875 124.0625 C-235.30928416 107.129698 -249.55774823 78.54043653 -254 55 C-253.66376883 52.25932501 -253.36130816 50.53245413 -251.8125 48.25 C-248.58302336 46.02277473 -245.43843516 45.78805069 -241.58422852 46.35595703 C-238.6587417 46.97790885 -235.76994287 47.68594815 -232.875 48.4375 C-231.8125708 48.71045898 -230.7501416 48.98341797 -229.65551758 49.26464844 C-197.69535198 57.79117854 -171.06685983 74.67181065 -147 97 C-145.70722214 96.14751605 -144.41587059 95.29286927 -143.125 94.4375 C-142.40570313 93.96183594 -141.68640625 93.48617187 -140.9453125 92.99609375 C-139.22127468 91.82768085 -137.50635025 90.64519442 -135.81518555 89.4296875 C-129.93369086 85.21994595 -123.93374001 81.5429707 -117.5625 78.125 C-116.6029541 77.6081665 -115.6434082 77.09133301 -114.65478516 76.55883789 C-93.04569376 65.01887623 -70.52234729 55.98128129 -47.4375 47.8125 C-46.20688843 47.37526611 -46.20688843 47.37526611 -44.95141602 46.92919922 C-41.85355523 45.85733739 -39.30220182 45 -36 45 C-36.56267578 43.70642578 -36.56267578 43.70642578 -37.13671875 42.38671875 C-43.01788776 28.51844307 -46.91365931 14.57467112 -48.4375 -0.4375 C-48.57720215 -1.77868896 -48.57720215 -1.77868896 -48.71972656 -3.14697266 C-48.79030273 -3.98405762 -48.86087891 -4.82114258 -48.93359375 -5.68359375 C-48.99603271 -6.42150146 -49.05847168 -7.15940918 -49.12280273 -7.91967773 C-48.97626846 -10.4020207 -48.29165612 -11.8904371 -47 -14 C-36.88544721 -21.86687439 -9.48024356 -5.00322382 0 0 Z " fill="#000000" transform="translate(267,127)"/>
<path d="M0 0 C20.43601425 4.54614724 39.50305091 15.38438832 56 28 C56.93328125 28.70769531 57.8665625 29.41539062 58.828125 30.14453125 C77.10221896 44.54473102 90.46334205 61.94520017 102 82 C102.62003906 83.04285156 103.24007812 84.08570313 103.87890625 85.16015625 C105.29224189 88.74027823 105.13943494 90.33157531 104 94 C102.71743551 96.62082892 101.20950783 99.05211358 99.625 101.5 C99.17874268 102.19851074 98.73248535 102.89702148 98.27270508 103.61669922 C88.38554112 118.83063518 76.24000517 133.66558412 62 145 C61.071875 145.75410156 60.14375 146.50820313 59.1875 147.28515625 C41.91714902 161.09385876 18.38115383 177.04078969 -4 180 C-27.09798767 145.51036174 -37.21739251 102.59144578 -29.55957031 61.64501953 C-24.98647015 39.00315336 -15.45618635 17.31436122 0 0 Z M10.1875 66.75 C8.43953563 70.06193248 7.8926342 73.29945873 8 77 C9.40204573 81.2061372 11.57966076 84.3470765 15.12890625 87.08203125 C18.95824776 88.96072698 22.87999679 88.71681357 27 88 C30.83378636 86.18766463 32.53351018 84.69973473 34.875 81.1875 C36.19527938 77.44670843 36.49277138 74.94217103 36 71 C33.42422676 66.38137213 31.0807921 62.69359737 26 61 C18.89811655 60.41787841 15.4383684 61.68019602 10.1875 66.75 Z " fill="#000000" transform="translate(394,170)"/>
</svg>
