<?xml version="1.0" encoding="UTF-8"?>
<svg version="1.1" xmlns="http://www.w3.org/2000/svg" width="512" height="512">
<path d="M0 0 C1.16917969 -0.02900391 2.33835937 -0.05800781 3.54296875 -0.08789062 C20.38778186 -0.20941258 34.36352983 6.81348584 46.26953125 18.453125 C57.92486539 30.65871096 63.81243303 45.85236306 64.4375 62.6875 C63.59008213 92.93663358 42.03696285 111.59382655 22.00386715 131.51142073 C19.4257739 134.07683065 16.85351648 136.64807992 14.28057861 139.21865845 C9.4294726 144.06360054 4.57330152 148.90343132 -0.28480983 153.74134791 C-5.82467855 159.25869715 -11.35872521 164.78187092 -16.89234209 170.3054893 C-28.25519351 181.64755429 -39.62516589 192.98245207 -51 204.3125 C-50.04726598 205.42741756 -49.09404672 206.54192047 -48.140625 207.65625 C-47.60985352 208.27693359 -47.07908203 208.89761719 -46.53222656 209.53710938 C-45.28904491 210.97758372 -44.0228743 212.39819522 -42.75 213.8125 C-39.03284964 219.1227148 -38.51366515 224.47778304 -39.3359375 230.75 C-40.8297253 236.51426351 -44.25445538 241.5215962 -49.25 244.8125 C-54.8334126 247.48711487 -61.1997452 248.18669651 -67.125 246.3125 C-71.82129027 244.23893635 -75.36091533 240.86173072 -79 237.3125 C-79.90878906 236.42691406 -79.90878906 236.42691406 -80.8359375 235.5234375 C-82.23836132 234.13418198 -83.62148263 232.7254803 -85 231.3125 C-88.53299905 232.81846929 -90.78314216 234.85972169 -93.47344971 237.5790863 C-94.36455444 238.47466751 -95.25565918 239.37024872 -96.17376709 240.29296875 C-97.15400368 241.28825818 -98.13416471 242.28362202 -99.11425781 243.27905273 C-100.15244402 244.3259916 -101.19111198 245.37245291 -102.23022461 246.41847229 C-104.46787497 248.67261253 -106.70252402 250.92967237 -108.93503571 253.1889019 C-112.47826122 256.77359454 -116.03079832 260.34896018 -119.58514404 263.92262268 C-129.69184585 274.08680227 -139.78876275 284.26062821 -149.87011719 294.44995117 C-155.43786483 300.0771664 -161.01484259 305.69506983 -166.60170627 311.30330807 C-169.55136717 314.26510504 -172.49618015 317.23137291 -175.42942047 320.20944023 C-191.28163085 336.2977953 -206.45600629 349.67483938 -227.05273438 359.39160156 C-230.13635736 360.84990471 -233.19588164 362.35616484 -236.25 363.875 C-236.87688721 364.18646973 -237.50377441 364.49793945 -238.1496582 364.81884766 C-247.59078808 369.55803972 -256.8667036 374.62260613 -266.16796875 379.62890625 C-267.29251465 380.2336377 -268.41706055 380.83836914 -269.57568359 381.46142578 C-271.92745147 382.7327151 -274.27392717 384.01098452 -276.61572266 385.30029297 C-277.76991699 385.93209473 -278.92411133 386.56389648 -280.11328125 387.21484375 C-281.66656128 388.07130493 -281.66656128 388.07130493 -283.2512207 388.94506836 C-290.35621676 392.47958145 -298.01522615 392.21067411 -305.5 389.875 C-314.52365786 386.25786802 -321.84240482 379.08157629 -326 370.3125 C-328.91007765 362.96801831 -329.36865562 356.03133285 -326.6328125 348.59765625 C-324.62469526 344.06463906 -322.33282379 339.6851359 -320 335.3125 C-319.53416504 334.43529297 -319.06833008 333.55808594 -318.58837891 332.65429688 C-314.33174304 324.67926907 -309.99327809 316.74899166 -305.4765625 308.91796875 C-301.78004065 302.49781616 -298.40745496 296.15866606 -295.5625 289.3125 C-293.17595591 283.63846188 -290.46382022 278.3151409 -287.25 273.0625 C-286.71354858 272.16144531 -286.71354858 272.16144531 -286.16625977 271.2421875 C-279.36552882 260.48338209 -269.26189943 251.42597242 -260.29614258 242.49511719 C-259.27953932 241.47879708 -258.26315834 240.46225459 -257.24697876 239.44551086 C-254.52887504 236.72712418 -251.80773399 234.01179759 -249.08597016 231.29707623 C-246.22677245 228.44419667 -243.37047056 225.58842057 -240.51383972 222.73297119 C-235.12236568 217.34458581 -229.72835133 211.95875107 -224.33338326 206.57386422 C-218.18372138 200.43544074 -212.03695217 194.29412405 -205.8904053 188.15258169 C-193.26345033 175.53603518 -180.63292892 162.92306467 -168 150.3125 C-169.72827526 146.57673636 -171.83639571 144.4246636 -174.875 141.625 C-180.42382311 136.17239925 -183.48507679 131.5054461 -184.4375 123.75 C-183.54153015 116.71023691 -181.20612963 111.29227617 -176 106.3125 C-169.72563339 102.44950565 -164.30227167 101.31964435 -157.0390625 102.6796875 C-150.50550014 104.56486557 -146.44906275 109.39999322 -142 114.3125 C-136.30217966 109.58103412 -131.07817737 104.50311409 -125.87451172 99.23706055 C-124.51251844 97.86542802 -123.1505221 96.49379853 -121.78841138 95.12228262 C-120.3360553 93.65906476 -118.88491319 92.19465175 -117.43401718 90.72998619 C-114.39277142 87.66066599 -111.34591088 84.59696056 -108.29788208 81.53437805 C-107.24957167 80.4809247 -106.20126812 79.42746453 -105.15297127 78.37399769 C-104.62823416 77.84667502 -104.10349705 77.31935235 -103.56285882 76.77605021 C-96.47858762 69.65589924 -89.39909553 62.53104851 -82.33007812 55.39575195 C-77.54713149 50.56805131 -72.75688292 45.74772187 -67.95852292 40.93533927 C-65.42809664 38.39690807 -62.90140562 35.85500747 -60.38375473 33.30389977 C-42.37492808 15.06297885 -26.83411237 0.21617169 0 0 Z " fill="#3F3F40" transform="translate(396,-0.3125)"/>
<path d="M0 0 C3.00023948 1.34676917 5.08720005 2.83911901 7.40423584 5.16372681 C8.05762436 5.814366 8.71101288 6.46500519 9.38420105 7.13536072 C10.08982681 7.84817703 10.79545258 8.56099335 11.52246094 9.29541016 C12.27406998 10.04672714 13.02567902 10.79804413 13.80006409 11.5721283 C16.28293771 14.05639513 18.7586523 16.54767095 21.234375 19.0390625 C22.95458084 20.76299849 24.6752288 22.48649341 26.39630127 24.20956421 C30.92494332 28.74584251 35.44754715 33.28809494 39.96893311 37.831604 C44.58374014 42.46686953 49.20421396 47.09647863 53.82421875 51.7265625 C62.88837732 60.81217086 71.9463628 69.90390788 81 79 C79.48870367 82.5375747 77.43070523 84.82736623 74.72909546 87.5450592 C73.8323259 88.45180389 72.93555634 89.35854858 72.01161194 90.29277039 C71.01485225 91.29042589 70.01797638 92.28796533 69.02099609 93.28540039 C67.97239005 94.3416303 66.92418741 95.39826083 65.87635803 96.45526123 C63.02718987 99.32638187 60.17146949 102.19089681 57.31384611 105.0535996 C55.52335912 106.84773479 53.73417649 108.64316046 51.94542313 110.43902397 C45.68842233 116.72053939 39.42570108 122.99629299 33.15820312 129.26733398 C27.34573112 135.08342413 21.54646646 140.91245489 15.75323617 146.74770552 C10.76069442 151.77516578 5.75835164 156.79273775 0.74866736 161.80311579 C-2.23458174 164.78715157 -5.21386285 167.77488475 -8.18309402 170.77287483 C-24.12994684 186.86445475 -39.39464148 200.33338977 -60.05273438 210.07910156 C-63.13635736 211.53740471 -66.19588164 213.04366484 -69.25 214.5625 C-69.87688721 214.87396973 -70.50377441 215.18543945 -71.1496582 215.50634766 C-80.59078808 220.24553972 -89.8667036 225.31010613 -99.16796875 230.31640625 C-100.29251465 230.9211377 -101.41706055 231.52586914 -102.57568359 232.14892578 C-104.92745147 233.4202151 -107.27392717 234.69848452 -109.61572266 235.98779297 C-111.34701416 236.93549561 -111.34701416 236.93549561 -113.11328125 237.90234375 C-114.14880127 238.47331787 -115.18432129 239.04429199 -116.2512207 239.63256836 C-123.35621676 243.16708145 -131.01522615 242.89817411 -138.5 240.5625 C-147.52365786 236.94536802 -154.84240482 229.76907629 -159 221 C-161.91007765 213.65551831 -162.36865562 206.71883285 -159.6328125 199.28515625 C-157.62469526 194.75213906 -155.33282379 190.3726359 -153 186 C-152.53416504 185.12279297 -152.06833008 184.24558594 -151.58837891 183.34179688 C-147.33174304 175.36676907 -142.99327809 167.43649166 -138.4765625 159.60546875 C-134.78004065 153.18531616 -131.40745496 146.84616606 -128.5625 140 C-126.17595591 134.32596188 -123.46382022 129.0026409 -120.25 123.75 C-119.89236572 123.14929688 -119.53473145 122.54859375 -119.16625977 121.9296875 C-112.34313664 111.13545749 -102.19872927 102.05054176 -93.2043457 93.09082031 C-92.17789036 92.06464811 -91.15165727 91.03825354 -90.12562561 90.01165771 C-87.38066331 87.2664124 -84.63266311 84.52422753 -81.88404107 81.78264713 C-78.99681658 78.90173991 -76.11248706 76.01793701 -73.22782898 73.13446045 C-67.78323089 67.69295126 -62.33609237 62.25399273 -56.88800067 56.81598163 C-50.67788084 50.61709939 -44.47065298 44.41532466 -38.26364768 38.21332407 C-25.51227832 25.47236375 -12.75734251 12.73497935 0 0 Z " fill="#BE1E2D" transform="translate(229,149)"/>
<path d="M0 0 C3.00023948 1.34676917 5.08720005 2.83911901 7.40423584 5.16372681 C8.05762436 5.814366 8.71101288 6.46500519 9.38420105 7.13536072 C10.08982681 7.84817703 10.79545258 8.56099335 11.52246094 9.29541016 C12.27406998 10.04672714 13.02567902 10.79804413 13.80006409 11.5721283 C16.28293771 14.05639513 18.7586523 16.54767095 21.234375 19.0390625 C22.95458084 20.76299849 24.6752288 22.48649341 26.39630127 24.20956421 C30.92494332 28.74584251 35.44754715 33.28809494 39.96893311 37.831604 C44.58374014 42.46686953 49.20421396 47.09647863 53.82421875 51.7265625 C62.88837732 60.81217086 71.9463628 69.90390788 81 79 C79.48870367 82.5375747 77.43070523 84.82736623 74.72909546 87.5450592 C73.8323259 88.45180389 72.93555634 89.35854858 72.01161194 90.29277039 C71.01485225 91.29042589 70.01797638 92.28796533 69.02099609 93.28540039 C67.97239005 94.3416303 66.92418741 95.39826083 65.87635803 96.45526123 C63.02718987 99.32638187 60.17146949 102.19089681 57.31384611 105.0535996 C55.52335912 106.84773479 53.73417649 108.64316046 51.94542313 110.43902397 C45.68842233 116.72053939 39.42570108 122.99629299 33.15820312 129.26733398 C27.34573112 135.08342413 21.54646646 140.91245489 15.75323617 146.74770552 C10.76069442 151.77516578 5.75835164 156.79273775 0.74866736 161.80311579 C-2.23458174 164.78715157 -5.21386285 167.77488475 -8.18309402 170.77287483 C-24.12994684 186.86445475 -39.39464148 200.33338977 -60.05273438 210.07910156 C-63.13635736 211.53740471 -66.19588164 213.04366484 -69.25 214.5625 C-69.87688721 214.87396973 -70.50377441 215.18543945 -71.1496582 215.50634766 C-80.59078808 220.24553972 -89.8667036 225.31010613 -99.16796875 230.31640625 C-100.29251465 230.9211377 -101.41706055 231.52586914 -102.57568359 232.14892578 C-104.92745147 233.4202151 -107.27392717 234.69848452 -109.61572266 235.98779297 C-111.34701416 236.93549561 -111.34701416 236.93549561 -113.11328125 237.90234375 C-114.14880127 238.47331787 -115.18432129 239.04429199 -116.2512207 239.63256836 C-123.35621676 243.16708145 -131.01522615 242.89817411 -138.5 240.5625 C-147.52365786 236.94536802 -154.84240482 229.76907629 -159 221 C-161.91007765 213.65551831 -162.36865562 206.71883285 -159.6328125 199.28515625 C-157.62469526 194.75213906 -155.33282379 190.3726359 -153 186 C-152.53416504 185.12279297 -152.06833008 184.24558594 -151.58837891 183.34179688 C-147.33174304 175.36676907 -142.99327809 167.43649166 -138.4765625 159.60546875 C-134.78004065 153.18531616 -131.40745496 146.84616606 -128.5625 140 C-126.17595591 134.32596188 -123.46382022 129.0026409 -120.25 123.75 C-119.89236572 123.14929688 -119.53473145 122.54859375 -119.16625977 121.9296875 C-112.34313664 111.13545749 -102.19872927 102.05054176 -93.2043457 93.09082031 C-92.17789036 92.06464811 -91.15165727 91.03825354 -90.12562561 90.01165771 C-87.38066331 87.2664124 -84.63266311 84.52422753 -81.88404107 81.78264713 C-78.99681658 78.90173991 -76.11248706 76.01793701 -73.22782898 73.13446045 C-67.78323089 67.69295126 -62.33609237 62.25399273 -56.88800067 56.81598163 C-50.67788084 50.61709939 -44.47065298 44.41532466 -38.26364768 38.21332407 C-25.51227832 25.47236375 -12.75734251 12.73497935 0 0 Z M-106 117 C-106.55220215 117.68658691 -107.1044043 118.37317383 -107.67333984 119.08056641 C-110.45330303 122.55624711 -112.80770202 126.13037337 -115 130 C-115.34659668 130.60924316 -115.69319336 131.21848633 -116.05029297 131.84619141 C-119.26244409 137.543241 -122.27280756 143.28802888 -124.88671875 149.28515625 C-127.19608592 154.54095739 -129.82930596 159.60784168 -132.5 164.6875 C-133.0161084 165.67411621 -133.5322168 166.66073242 -134.06396484 167.67724609 C-138.33329958 175.80691613 -142.7142274 183.87389614 -147.16601562 191.9050293 C-147.87661133 193.19340698 -147.87661133 193.19340698 -148.6015625 194.5078125 C-149.01744629 195.25691895 -149.43333008 196.00602539 -149.86181641 196.77783203 C-153.53133015 203.94212077 -154.51581537 210.95903259 -152.16015625 218.79296875 C-149.41116028 224.91110456 -145.74728078 228.61790237 -140 232 C-139.37222656 232.37253906 -138.74445313 232.74507812 -138.09765625 233.12890625 C-131.97995698 235.66940334 -124.63827676 234.59430645 -118.625 232.25 C-108.81870564 227.71714258 -99.43493581 222.24752048 -90 217 C-68.38698402 204.97927763 -68.38698402 204.97927763 -61.625 202.375 C-56.81299607 200.48481716 -52.4717835 198.11325488 -48.0625 195.4375 C-47.45422363 195.08026855 -46.84594727 194.72303711 -46.21923828 194.35498047 C-41.85303389 191.62225823 -38.05933043 188.35356807 -34.29199219 184.85864258 C-33.73052144 184.33861286 -33.16905069 183.81858315 -32.59056568 183.28279495 C-24.86668229 176.07247491 -17.43788954 168.56160009 -9.98046875 161.078125 C-8.38501156 159.48079779 -6.78932978 157.88369488 -5.19343567 156.2868042 C-1.03702387 152.12661319 3.11637359 147.9634259 7.269104 143.79956055 C11.52455564 139.53379477 15.78291547 135.27093422 20.04101562 131.0078125 C28.36349101 122.67468109 36.68277794 114.33837449 45 106 C41.43477791 104.09349682 38.6015578 103.57924729 34.55078125 103.21875 C33.2447998 103.10015625 31.93881836 102.9815625 30.59326172 102.859375 C29.16637757 102.73915028 27.73945583 102.61937092 26.3125 102.5 C24.8282703 102.36999088 23.34405832 102.2397792 21.85986328 102.109375 C11.02216896 101.17522623 0.17639404 100.48612578 -10.68426514 99.88626099 C-19.45558802 99.39936889 -28.17624975 98.74472632 -36.91577148 97.83764648 C-40.76958171 97.44190719 -44.62563532 97.09388231 -48.484375 96.75 C-53.49930471 96.29338974 -58.42201434 95.62607367 -63.390625 94.8125 C-84.61886814 91.89508459 -93.84601022 101.22158247 -106 117 Z " fill="#CDD6EC" transform="translate(229,149)"/>
<path d="M0 0 C6.08675022 3.7054622 10.69255923 9.62123155 15.29786682 14.97093201 C19.08368807 19.29980021 23.07716649 23.38222485 27.14819336 27.44165039 C28.30087959 28.5969651 28.30087959 28.5969651 29.47685242 29.77561951 C31.99509515 32.29823124 34.51694005 34.81720518 37.0390625 37.3359375 C38.80365857 39.10120803 40.56810624 40.86662692 42.33241272 42.63218689 C46.49263172 46.79406386 50.65541271 50.9533661 54.81912476 55.11174816 C58.12761024 58.41647945 61.43354676 61.72374483 64.73803711 65.0324707 C69.31493056 69.61517838 73.8942824 74.19541335 78.47570992 78.77358818 C80.21427245 80.51148646 81.95210027 82.25012006 83.6891613 83.98951912 C86.12230389 86.42521802 88.55865809 88.85766002 90.99584961 91.28930664 C91.70414917 91.99963043 92.41244873 92.70995422 93.14221191 93.44180298 C97.09604023 97.37908993 101.14762026 101.13528124 105.39215946 104.7582159 C110.13054942 108.94797099 113.07003048 112.90065163 114.13671875 119.30078125 C114.47004335 127.01852772 112.30722909 132.56876753 107.13671875 138.30078125 C102.3094172 142.5629353 96.4440945 143.52923738 90.13671875 143.30078125 C83.37611263 142.12663576 78.91705258 137.95582407 74.13671875 133.30078125 C73.53859375 132.72972656 72.94046875 132.15867188 72.32421875 131.5703125 C69.36031887 128.67918695 66.57217523 125.68330367 63.87669373 122.54103088 C60.35410239 118.49882009 56.65586517 114.67844146 52.85961914 110.89428711 C52.16919022 110.20210587 51.47876129 109.50992462 50.76741028 108.79676819 C48.50888853 106.53388394 46.2467744 104.27463193 43.984375 102.015625 C42.399141 100.42971635 40.81405538 98.84365936 39.22911072 97.25746155 C35.9164884 93.94336984 32.60207689 90.63108086 29.28637695 87.32006836 C25.05213117 83.09151937 20.82239118 78.85849631 16.59398746 74.62410641 C13.32458198 71.3510748 10.05278289 68.08044422 6.78027153 64.81051826 C5.22033888 63.25124921 3.66113907 61.69124663 2.10270882 60.130476 C-0.08136854 57.94383834 -2.26866174 55.76046679 -4.45678711 53.57788086 C-5.09028076 52.94236298 -5.72377441 52.30684509 -6.37646484 51.65206909 C-10.12967643 47.9163017 -13.99610161 44.36321698 -18.00745487 40.90578556 C-25.04550017 34.81895913 -30.12430802 29.3181347 -31.30078125 19.73828125 C-30.4048114 12.69851816 -28.06941088 7.28055742 -22.86328125 2.30078125 C-15.50971102 -2.22665587 -8.20779394 -3.40244503 0 0 Z " fill="#231F20" transform="translate(242.86328125,103.69921875)"/>
<path d="M0 0 C3.85160057 3.4745208 6.43311432 7.46930761 9.1875 11.8125 C9.66944824 12.56660156 10.15139648 13.32070313 10.64794922 14.09765625 C42.0542459 63.46963863 42.0542459 63.46963863 38.57421875 85.72265625 C35.56202337 97.38336351 27.84570449 105.14861942 17.87109375 111.31640625 C8.88037883 115.8039457 -2.98144668 115.42579265 -12.578125 113.15234375 C-22.39196379 109.44069959 -30.50015601 102.54672784 -35 93 C-39.42558624 82.5900178 -39.34152726 71.81084701 -35.3828125 61.27734375 C-26.16508608 39.43081137 -13.88605613 19.19616377 0 0 Z " fill="#BE1D2C" transform="translate(91,398)"/>
</svg>
