<?xml version="1.0" encoding="UTF-8"?>
<svg version="1.1" xmlns="http://www.w3.org/2000/svg" width="512" height="512">
<path d="M0 0 C2.00728766 2.20086257 2.42357511 3.15953084 2.86328125 6.04296875 C2.54523277 7.9950695 2.54523277 7.9950695 1.91000366 10.07711792 C1.67251656 10.87320969 1.43502945 11.66930145 1.19034576 12.48951721 C0.920476 13.35648727 0.65060623 14.22345734 0.37255859 15.11669922 C0.0939373 16.04003555 -0.18468399 16.96337189 -0.47174835 17.91468811 C-1.40520891 20.99949967 -2.35300153 24.07971677 -3.30078125 27.16015625 C-3.96402561 29.34177747 -4.62635069 31.52367835 -5.28781128 33.70584106 C-6.70025553 38.35903703 -8.11885413 43.01029462 -9.54223633 47.66015625 C-11.76168441 54.91188123 -13.96521235 62.16837962 -16.16601562 69.42578125 C-21.93887891 88.45260122 -27.73623987 107.47192128 -33.55311394 126.48533058 C-35.57686309 133.10238347 -37.59194606 139.72203319 -39.59980965 146.34392357 C-40.93694243 150.75122471 -42.28666537 155.15438778 -43.64680672 159.55463982 C-44.66477595 162.85995059 -45.66496982 166.17058558 -46.66796875 169.48046875 C-47.20464676 171.19509811 -47.20464676 171.19509811 -47.75216675 172.94436646 C-49.9196434 180.17886578 -51.86212206 187.63360472 -49.01171875 194.91796875 C-46.18982693 198.11611282 -43.48190883 200.57954796 -39.1796875 201.4296875 C-34.0931832 201.71173076 -31.06317702 200.42154912 -27.13671875 197.04296875 C-24.0005483 192.66823941 -22.66892855 187.88174606 -21.14697266 182.78710938 C-20.86375027 181.85844055 -20.58052788 180.92977173 -20.28872299 179.97296143 C-19.34857589 176.88369399 -18.41834048 173.79153688 -17.48828125 170.69921875 C-16.82279654 168.50388274 -16.15682183 166.30869522 -15.49038696 164.11364746 C-13.36201694 157.09323221 -11.24847821 150.06839516 -9.13671875 143.04296875 C-8.44301547 140.7376235 -7.7492901 138.43228489 -7.05554199 136.12695312 C-2.53962225 121.11297318 1.95163601 106.09166893 6.43579102 91.06817627 C7.86047533 86.29634305 9.2866966 81.52496979 10.7129612 76.7536087 C12.4433042 70.96480934 14.17289343 65.17578486 15.90234375 59.38671875 C16.22062763 58.32145462 16.53891151 57.25619049 16.86684036 56.15864563 C17.77702917 53.11174393 18.6866683 50.0646786 19.59619141 47.01757812 C20.01973624 45.60031811 20.01973624 45.60031811 20.45183754 44.15442657 C21.77370364 39.72493843 23.08496918 35.29288058 24.37078857 30.8527832 C24.60276129 30.05391945 24.834734 29.25505569 25.07373619 28.43198395 C25.50285419 26.95072192 25.92923715 25.46866373 26.35236549 23.98567963 C27.75270317 19.15354683 27.75270317 19.15354683 28.86328125 18.04296875 C49.29205329 16.42037097 68.86653421 22.1058002 84.73828125 35.23046875 C92.16017552 41.68300521 98.64458364 49.3966305 102.99584961 58.24536133 C103.34796005 58.9586409 103.7000705 59.67192047 104.06285095 60.40681458 C104.32699295 60.94674545 104.59113495 61.48667633 104.86328125 62.04296875 C103.77333862 63.65123535 103.77333862 63.65123535 102.66137695 65.29199219 C88.16355517 86.69410119 73.76411383 108.15456255 59.57687378 129.76394653 C49.0690878 145.76336105 38.41097611 161.65701582 27.66601562 177.49804688 C22.29983947 185.41399824 16.95571205 193.34411616 11.71484375 201.34375 C11.26668304 202.01979782 10.81852234 202.69584564 10.35678101 203.39237976 C5.65304274 210.44691769 5.65304274 210.44691769 3.83203125 218.51953125 C5.10162475 223.65391672 6.54306868 226.67109553 10.86328125 230.04296875 C15.87396213 231.71319571 20.06858743 231.8281473 24.86328125 229.73046875 C34.28724246 222.39656801 40.7418096 208.74349862 47.20129395 198.86920166 C57.88046548 182.55017857 68.67839123 166.31663179 79.61328125 150.16796875 C92.87645566 130.5768236 105.91588623 110.84395491 118.86328125 91.04296875 C138.95902163 97.49824063 155.12808635 112.49603012 165.328125 130.75 C170.22543509 141.25491706 172.995851 152.28217047 173.1015625 163.8515625 C173.10963425 164.69590347 173.11770599 165.54024445 173.12602234 166.41017151 C173.13981292 168.19115169 173.1505574 169.97215774 173.15844727 171.75317383 C173.16999238 173.56965916 173.19048401 175.3861099 173.2199707 177.20239258 C173.2626856 179.83568219 173.27881811 182.46796932 173.2890625 185.1015625 C173.30657059 185.90798691 173.32407867 186.71441132 173.34211731 187.54527283 C173.32178027 192.85772023 172.37700788 195.82877029 168.86328125 200.04296875 C167.15014648 201.6953125 167.15014648 201.6953125 165.421875 202.98046875 C164.76606445 203.47522705 164.11025391 203.96998535 163.43457031 204.47973633 C162.73041992 204.99560303 162.02626953 205.51146973 161.30078125 206.04296875 C160.5540918 206.60201904 159.80740234 207.16106934 159.03808594 207.73706055 C156.65450935 209.51682084 154.2604723 211.28159877 151.86328125 213.04296875 C151.09967285 213.60580566 150.33606445 214.16864258 149.54931641 214.74853516 C146.44658773 217.03541742 143.34273139 219.3207133 140.23413086 221.59960938 C134.22431166 226.01275743 128.28402627 230.51120852 122.36328125 235.04296875 C111.85191163 243.08431129 101.20696876 250.93357413 90.52929688 258.75195312 C81.40964343 265.43360398 72.34288224 272.17388727 63.36328125 279.04296875 C52.8516605 287.08399189 42.20697692 294.93356816 31.52929688 302.75195312 C21.50711241 310.09485686 11.56602407 317.53032874 1.69970703 325.08154297 C-4.79924887 330.04710467 -11.36258504 334.91673499 -17.96386719 339.74511719 C-23.08670822 343.50243625 -28.14471039 347.33539658 -33.17919922 351.21020508 C-40.17734408 356.59353906 -47.18109536 361.92979771 -54.51171875 366.85546875 C-55.08760742 367.24573242 -55.66349609 367.63599609 -56.25683594 368.03808594 C-67.30660819 375.3023485 -80.09423114 377.47717235 -93.046875 374.90234375 C-105.18537073 371.52627667 -114.73322761 363.47153693 -124.6015625 355.96923828 C-127.93454764 353.43676017 -131.28459864 350.92740306 -134.63476562 348.41772461 C-136.30888215 347.16328074 -137.98205328 345.90757426 -139.65429688 344.65063477 C-145.29101417 340.4148848 -150.95451564 336.21745628 -156.63671875 332.04296875 C-164.00904428 326.62681583 -171.33592858 321.1528978 -178.64746094 315.6550293 C-185.15981455 310.7631473 -191.71008622 305.92471262 -198.2734375 301.1015625 C-203.90446857 296.96027177 -209.50272507 292.77755809 -215.08789062 288.57470703 C-220.16354292 284.76042224 -225.27052989 280.99015582 -230.38671875 277.23046875 C-237.84157976 271.75144895 -245.25204658 266.21597613 -252.64648438 260.65576172 C-259.15916484 255.76363717 -265.70975823 250.92495365 -272.2734375 246.1015625 C-277.90151788 241.96244182 -283.49689277 237.78198812 -289.07910156 233.58129883 C-294.24091833 229.70223588 -299.43459261 225.86775414 -304.63671875 222.04296875 C-310.73125574 217.55798291 -316.82149282 213.06754711 -322.88671875 208.54296875 C-323.51771484 208.07503906 -324.14871094 207.60710937 -324.79882812 207.125 C-327.90803733 204.79892495 -330.96727339 202.4178061 -333.96484375 199.94921875 C-334.5259082 199.48837891 -335.08697266 199.02753906 -335.66503906 198.55273438 C-339.53915555 194.57835873 -339.45670508 190.40117634 -339.47265625 185.0859375 C-339.48264145 183.91590935 -339.48264145 183.91590935 -339.49282837 182.72224426 C-339.50294735 181.06721341 -339.50764562 179.41214183 -339.50732422 177.75708008 C-339.51163821 175.27677614 -339.54779536 172.79834148 -339.5859375 170.31835938 C-339.68260819 156.9260285 -337.7503422 144.73196839 -331.38671875 132.73046875 C-331.04310303 132.06587646 -330.6994873 131.40128418 -330.34545898 130.71655273 C-327.25325374 124.92016436 -323.58131411 119.88774798 -319.13671875 115.04296875 C-318.48445313 114.29917969 -317.8321875 113.55539063 -317.16015625 112.7890625 C-308.60880952 103.5811517 -296.8182756 95.71559149 -285.13671875 91.04296875 C-284.47671875 91.04296875 -283.81671875 91.04296875 -283.13671875 91.04296875 C-281.99040222 92.42402649 -281.99040222 92.42402649 -280.70776367 94.3996582 C-280.21974777 95.14351273 -279.73173187 95.88736725 -279.22892761 96.65376282 C-278.69705338 97.47958359 -278.16517914 98.30540436 -277.6171875 99.15625 C-277.05562454 100.01530441 -276.49406158 100.87435883 -275.91548157 101.75944519 C-274.69155608 103.63281543 -273.47068053 105.50818089 -272.25244141 107.38525391 C-268.96183162 112.45407622 -265.64807192 117.50772688 -262.3359375 122.5625 C-261.65316742 123.60556305 -260.97039734 124.6486261 -260.26693726 125.72329712 C-253.48871473 136.06354627 -246.57459082 146.30944678 -239.63671875 156.54296875 C-232.04656872 167.74204728 -224.50165599 178.96691087 -217.078125 190.27734375 C-216.41505341 191.28716309 -215.75198181 192.29698242 -215.06881714 193.33740234 C-211.87144687 198.21014689 -208.68114501 203.08735154 -205.5 207.97070312 C-204.34905936 209.72923279 -203.19802274 211.48769965 -202.046875 213.24609375 C-201.5356459 214.03578552 -201.02441681 214.82547729 -200.49769592 215.63909912 C-194.76282087 224.90731984 -194.76282087 224.90731984 -186.13671875 231.04296875 C-180.54841302 231.49363857 -176.92514657 231.27237356 -172.13671875 228.04296875 C-169.1260878 224.30563377 -168.30104869 220.80853688 -168.13671875 216.04296875 C-170.22228014 210.23695147 -173.343258 205.35962068 -176.75390625 200.24609375 C-177.31405426 199.39694397 -177.87420227 198.54779419 -178.45132446 197.6729126 C-180.29904983 194.87575252 -182.15517971 192.08428525 -184.01171875 189.29296875 C-185.31994729 187.31724652 -186.62788517 185.34133181 -187.93554688 183.36523438 C-197.35031598 169.1567264 -206.86939631 155.01924705 -216.42294312 140.90380859 C-227.21475034 124.95730734 -237.84895105 108.91069323 -248.421875 92.81835938 C-248.99298004 91.94953125 -249.56408508 91.08070313 -250.15249634 90.18554688 C-251.25936725 88.49940624 -252.36422495 86.81194199 -253.46688843 85.12304688 C-255.99915695 81.25168158 -258.56057214 77.41150331 -261.22119141 73.62695312 C-261.69724319 72.9417157 -262.17329498 72.25647827 -262.66377258 71.55047607 C-263.54565332 70.2860721 -264.43939232 69.02981746 -265.34733582 67.78399658 C-267.19117119 65.12551161 -268.1680592 63.57708394 -267.9753418 60.29272461 C-261.61493788 43.22980698 -245.78631435 31.14886206 -229.93359375 23.5859375 C-218.00663854 18.49980922 -205.95994438 17.42165499 -193.13671875 18.04296875 C-190.82103701 24.01311364 -188.86094394 30.02366916 -187.03662109 36.16015625 C-186.74132193 37.14523635 -186.44602276 38.13031645 -186.14177513 39.14524746 C-185.16614722 42.40205282 -184.19441164 45.66000603 -183.22265625 48.91796875 C-182.53291587 51.22298391 -181.84290807 53.52791907 -181.15264893 55.83277893 C-179.69172993 60.71247972 -178.23237902 65.59264555 -176.77423096 70.47317505 C-174.51386565 78.03784277 -172.24851055 85.60100981 -169.98193359 93.16381836 C-169.23110863 95.66923493 -168.48028465 98.1746518 -167.72946167 100.68006897 C-167.360285 101.91194506 -166.99110832 103.14382114 -166.61074448 104.41302681 C-164.779648 110.52371808 -162.94936997 116.63465443 -161.11914062 122.74560547 C-160.77316771 123.9007153 -160.42719479 125.05582514 -160.07073784 126.2459383 C-158.53707373 131.36657748 -157.00362205 136.48727994 -155.47094727 141.60821533 C-152.92149153 150.12587711 -150.36769333 158.64217718 -147.80059814 167.15454102 C-147.11279823 169.43926031 -146.42749976 171.72473428 -145.74481201 174.01098633 C-144.83220784 177.06653723 -143.91147619 180.1195105 -142.98828125 183.171875 C-142.7366925 184.02173477 -142.48510376 184.87159454 -142.22589111 185.74720764 C-140.55370019 191.22879175 -138.90223268 195.5238056 -134.44921875 199.35546875 C-130.43068966 201.40264394 -127.55541928 201.91612514 -123.13671875 201.04296875 C-118.77629005 198.82161828 -115.93459513 196.63754173 -114.13671875 192.04296875 C-113.47179224 185.02684704 -114.64386681 178.94618945 -116.7409668 172.28808594 C-117.01973128 171.36389044 -117.29849577 170.43969494 -117.58570766 169.48749352 C-118.51022432 166.43413031 -119.45424372 163.38717394 -120.3984375 160.33984375 C-121.06063637 158.16662674 -121.72156834 155.99302334 -122.38131714 153.81906128 C-123.78561476 149.20074506 -125.19835992 144.58513473 -126.61795044 139.97149658 C-128.83081205 132.77888584 -131.02345533 125.58021599 -133.21264648 118.38037109 C-136.13377863 108.77909974 -139.06184915 99.17998134 -141.99707031 89.58300781 C-146.90279045 73.5420872 -151.80111408 57.49896715 -156.65001774 41.44076538 C-158.00047818 36.96990145 -159.3607037 32.50217833 -160.72922134 28.03680992 C-161.74925521 24.70009854 -162.7564634 21.35954643 -163.765625 18.01953125 C-164.12856659 16.84550751 -164.49150818 15.67148376 -164.865448 14.46188354 C-165.18385651 13.39890045 -165.50226501 12.33591736 -165.83032227 11.24072266 C-166.10908707 10.32578033 -166.38785187 9.41083801 -166.67506409 8.46817017 C-167.16441171 5.89748988 -167.03121471 4.47838303 -166.13671875 2.04296875 C-152.27629552 -17.27315299 -123.01003537 -28.33415836 -100.81640625 -32.39453125 C-62.3691094 -38.27182504 -28.82456762 -25.23873624 0 0 Z " fill="#000000" transform="translate(339.13671875,84.95703125)"/>
<path d="M0 0 C5.54486602 2.97564799 10.33939621 6.45370401 15.25 10.375 C21.52509045 15.32223128 27.86044537 20.16086799 34.3125 24.875 C41.10180796 29.84029389 47.82141914 34.88674033 54.5 40 C61.49656486 45.35402898 68.53068699 50.65105545 75.625 55.875 C76.42486328 56.46410156 77.22472656 57.05320312 78.04882812 57.66015625 C81.00335136 59.82903904 83.94970714 61.96647142 87 64 C87 64.66 87 65.32 87 66 C75.49950444 66.06954355 63.99905901 66.1228335 52.49839592 66.15543652 C47.15803469 66.17108518 41.81781744 66.19230905 36.47753906 66.22631836 C31.32283235 66.25894003 26.16826405 66.27685903 21.01346207 66.28463173 C19.04789171 66.29017017 17.08232883 66.30098541 15.11681747 66.31719017 C12.36140385 66.33900163 9.60656044 66.34196536 6.85107422 66.34057617 C6.04043015 66.351362 5.22978607 66.36214783 4.39457703 66.3732605 C-0.4758179 66.34673128 -3.77141117 65.67433481 -8 63 C-14.35687111 55.95589959 -13.51564477 48.61733486 -13.18359375 39.58056641 C-12.21159052 25.91823372 -7.24295933 11.53508337 0 0 Z " fill="#000000" transform="translate(75,372)"/>
<path d="M0 0 C7.19760739 6.38396482 9.55601424 18.0687525 12 27 C12.22816406 27.78503906 12.45632813 28.57007813 12.69140625 29.37890625 C14.11568822 35.10591419 14.26575386 40.87634785 14.375 46.75 C14.40110352 47.56678223 14.42720703 48.38356445 14.45410156 49.22509766 C14.46964927 54.64791513 13.5809245 57.68827458 10 62 C5.18688595 66.22970629 0.64168774 66.14045259 -5.51049805 66.11352539 C-6.37900391 66.11367142 -7.24750977 66.11381744 -8.14233398 66.1139679 C-11.01548757 66.11327076 -13.88857648 66.10548761 -16.76171875 66.09765625 C-18.75283269 66.09579137 -20.74394708 66.09436779 -22.73506165 66.09336853 C-27.97772486 66.0895489 -33.22036041 66.07972332 -38.4630127 66.06866455 C-43.81192653 66.05843854 -49.16084483 66.05386835 -54.50976562 66.04882812 C-65.00652258 66.03810058 -75.50325899 66.02103077 -86 66 C-86 65.34 -86 64.68 -86 64 C-84.58911133 62.74169922 -84.58911133 62.74169922 -82.58203125 61.3046875 C-81.83308594 60.76199219 -81.08414062 60.21929687 -80.3125 59.66015625 C-79.4875 59.07105469 -78.6625 58.48195313 -77.8125 57.875 C-76.05742772 56.60317002 -74.30356404 55.3296709 -72.55078125 54.0546875 C-71.63506348 53.38920898 -70.7193457 52.72373047 -69.77587891 52.03808594 C-65.30306545 48.75408886 -60.90251451 45.37732764 -56.5 42 C-49.12382713 36.35290337 -41.68853826 30.79793754 -34.19262695 25.31103516 C-27.06393732 20.07939436 -20.03516118 14.72033695 -13.02734375 9.328125 C-8.77124039 6.06335006 -4.5130886 2.90074536 0 0 Z " fill="#000000" transform="translate(438,372)"/>
</svg>
