<?xml version="1.0" encoding="UTF-8"?>
<svg version="1.1" xmlns="http://www.w3.org/2000/svg" width="512" height="512">
<path d="M0 0 C11.80396136 7.79204096 19.68025547 17.60216327 23.3359375 31.45703125 C23.63832538 34.71133547 23.6679477 37.94029244 23.6484375 41.20703125 C23.64650391 42.53686035 23.64650391 42.53686035 23.64453125 43.89355469 C23.55304637 50.11681344 22.87878926 55.70534275 20.3359375 61.45703125 C21.37492188 61.74835938 22.41390625 62.0396875 23.484375 62.33984375 C38.97330702 66.82769113 51.01079953 73.3227898 59.08203125 87.92578125 C62.81486828 95.46122796 63.61471511 102.17567547 63.7109375 110.51953125 C63.72495605 111.3585498 63.73897461 112.19756836 63.75341797 113.06201172 C63.70799876 119.00727016 62.52682605 123.93988481 60.3359375 129.45703125 C61.2640625 129.70453125 62.1921875 129.95203125 63.1484375 130.20703125 C64.54607518 130.61760489 65.9416813 131.0351172 67.3359375 131.45703125 C68.16996094 131.70195312 69.00398438 131.946875 69.86328125 132.19921875 C81.6910725 136.03434188 92.17871849 143.60450646 98.05859375 154.7109375 C103.7053049 166.65847054 105.54979911 179.14721149 102.44140625 192.21875 C101.51871333 194.71295525 100.55057527 197.09282559 99.3359375 199.45703125 C100.2228125 199.35390625 101.1096875 199.25078125 102.0234375 199.14453125 C112.49053071 199.20796818 122.84321731 205.61890128 130.3359375 212.45703125 C140.97025111 224.10933043 144.26780799 236.3985174 143.7109375 251.796875 C143.3880619 256.95357081 142.43307588 261.71350397 140.3359375 266.45703125 C141.21894531 266.67617188 142.10195313 266.8953125 143.01171875 267.12109375 C157.78703365 271.02520488 169.24270802 277.14081583 177.7109375 290.39453125 C184.07562823 302.01009183 185.96581116 316.40932696 182.421875 329.359375 C180.07895232 335.83642255 176.93358824 341.33846442 172.3359375 346.45703125 C171.81257813 347.0603125 171.28921875 347.66359375 170.75 348.28515625 C162.69252681 356.98571415 152.49440682 362.1183686 140.6796875 362.7734375 C124.92551064 363.30146868 113.0093002 360.3836173 101.16015625 349.44921875 C99.5118553 347.81743384 97.90418227 346.16548333 96.3359375 344.45703125 C93.29560212 345.799517 91.42015832 347.24247335 89.2109375 349.70703125 C79.71303224 359.42770188 68.69750752 362.71998039 55.4609375 362.89453125 C40.58717164 362.79469814 29.80308349 358.00554351 19.2109375 347.51953125 C18.2445181 346.50634962 17.28278312 345.48852863 16.3359375 344.45703125 C13.29560212 345.799517 11.42015832 347.24247335 9.2109375 349.70703125 C-0.28696776 359.42770188 -11.30249248 362.71998039 -24.5390625 362.89453125 C-39.41282836 362.79469814 -50.19691651 358.00554351 -60.7890625 347.51953125 C-61.7554819 346.50634962 -62.71721688 345.48852863 -63.6640625 344.45703125 C-66.70439788 345.799517 -68.57984168 347.24247335 -70.7890625 349.70703125 C-80.28696776 359.42770188 -91.30249248 362.71998039 -104.5390625 362.89453125 C-119.41282836 362.79469814 -130.19691651 358.00554351 -140.7890625 347.51953125 C-141.7554819 346.50634962 -142.71721688 345.48852863 -143.6640625 344.45703125 C-146.70439788 345.799517 -148.57984168 347.24247335 -150.7890625 349.70703125 C-160.28696776 359.42770188 -171.30249248 362.71998039 -184.5390625 362.89453125 C-199.51726435 362.79399716 -209.89849538 357.80454599 -220.9140625 347.76953125 C-230.2294904 338.09581766 -233.08271532 326.07651283 -233.02758789 313.13916016 C-232.78517435 301.30291478 -229.13736487 292.60346101 -221.6640625 283.45703125 C-221.15230469 282.82023437 -220.64054687 282.1834375 -220.11328125 281.52734375 C-212.25152971 272.748713 -200.97572971 268.5970764 -189.6640625 266.45703125 C-189.880625 265.9671875 -190.0971875 265.47734375 -190.3203125 264.97265625 C-194.3625255 254.1185658 -194.5274838 240.306086 -190.6640625 229.39453125 C-184.49899277 215.96225642 -175.60950731 207.08615782 -161.9140625 201.45703125 C-157.26725179 199.80101647 -153.56317862 198.88736658 -148.6640625 199.45703125 C-149.0971875 198.61398437 -149.0971875 198.61398437 -149.5390625 197.75390625 C-154.2116047 187.17578989 -154.77217251 173.34313725 -151.0390625 162.33203125 C-150.29729374 160.68365623 -149.50593845 159.05659556 -148.6640625 157.45703125 C-148.2515625 156.61140625 -147.8390625 155.76578125 -147.4140625 154.89453125 C-142.0139385 144.8306638 -133.34932591 137.44057243 -122.6640625 133.45703125 C-118.69395688 132.29516385 -114.71074511 131.31225799 -110.6640625 130.45703125 C-110.43342126 126.61207262 -110.43342126 126.61207262 -111.640625 123.80859375 C-114.97267811 112.89675571 -113.78117401 98.5545955 -108.6640625 88.45703125 C-101.58218849 75.81485298 -91.2797645 67.71832279 -77.5234375 63.4921875 C-74.91248486 62.76580708 -72.30036592 62.0842369 -69.6640625 61.45703125 C-69.880625 60.9671875 -70.0971875 60.47734375 -70.3203125 59.97265625 C-74.84505715 47.82287894 -74.51344898 32.92396294 -69.14453125 21.1484375 C-66.97993102 17.21331993 -64.66341084 13.79834804 -61.6640625 10.45703125 C-61.09042969 9.78027344 -60.51679688 9.10351562 -59.92578125 8.40625 C-45.30435164 -7.66824094 -18.57494641 -10.75821676 0 0 Z M-50.26171875 23.34765625 C-55.82463489 31.71527384 -57.01130563 39.39416138 -55.6640625 49.45703125 C-52.76289101 58.63701548 -47.66914015 64.95232565 -39.421875 69.765625 C-30.96824519 73.77070535 -21.08606775 74.02085158 -12.2890625 70.89453125 C-3.88595633 66.91338751 1.40297298 61.30420602 5.2578125 52.83203125 C7.98009062 44.31011712 7.5349931 36.08682377 3.8359375 27.95703125 C0.80309177 22.67263494 -2.5966641 18.83216302 -7.6640625 15.45703125 C-8.30730469 15.02519531 -8.95054687 14.59335938 -9.61328125 14.1484375 C-23.22339747 6.65639257 -41.04547386 11.35977781 -50.26171875 23.34765625 Z M-88.6640625 89.45703125 C-95.27100396 98.58486023 -96.46038536 106.38814346 -95.6640625 117.45703125 C-93.78159612 125.31576136 -88.61686999 131.85947204 -81.9296875 136.25390625 C-73.55951169 140.80762884 -65.82287625 142.80059962 -56.4765625 140.33203125 C-46.91060751 136.96651301 -40.10683613 131.41876401 -35.2890625 122.45703125 C-32.39218494 115.3065107 -32.27445448 106.79670875 -34.6171875 99.48046875 C-35.80877846 96.9841611 -37.10904685 94.74230287 -38.6640625 92.45703125 C-39.04820312 91.874375 -39.43234375 91.29171875 -39.828125 90.69140625 C-44.37147982 84.57178547 -51.27121136 80.81238729 -58.6640625 79.45703125 C-70.6966837 78.51329625 -80.00474139 80.70023185 -88.6640625 89.45703125 Z M-8.6640625 89.45703125 C-15.27100396 98.58486023 -16.46038536 106.38814346 -15.6640625 117.45703125 C-13.78159612 125.31576136 -8.61686999 131.85947204 -1.9296875 136.25390625 C6.40295477 140.78720904 14.14020464 142.78224985 23.4609375 140.39453125 C32.8566237 137.10828171 39.90937419 131.30654447 44.6484375 122.51953125 C47.60421467 115.34813746 47.73906803 106.8389389 45.3828125 99.48046875 C44.19122154 96.9841611 42.89095315 94.74230287 41.3359375 92.45703125 C40.95179688 91.874375 40.56765625 91.29171875 40.171875 90.69140625 C35.62852018 84.57178547 28.72878864 80.81238729 21.3359375 79.45703125 C9.3033163 78.51329625 -0.00474139 80.70023185 -8.6640625 89.45703125 Z M-130.1953125 160.25390625 C-136.05749582 167.95654247 -136.50321883 176.01386703 -135.6640625 185.45703125 C-133.58989545 193.81580027 -127.75030868 200.6353332 -120.6640625 205.33203125 C-113.12087479 209.62384495 -105.30043119 210.76799723 -96.859375 208.8046875 C-87.68621148 205.84437296 -80.27921725 200.02547747 -75.6640625 191.45703125 C-72.59027652 183.72927355 -72.06328465 174.38840362 -75.2265625 166.58203125 C-79.9198775 157.72236995 -86.75289531 151.75581849 -96.0390625 148.14453125 C-109.87324648 145.5208067 -121.06170442 149.53589677 -130.1953125 160.25390625 Z M-50.1953125 160.25390625 C-56.05749582 167.95654247 -56.50321883 176.01386703 -55.6640625 185.45703125 C-53.58989545 193.81580027 -47.75030868 200.6353332 -40.6640625 205.33203125 C-33.12087479 209.62384495 -25.30043119 210.76799723 -16.859375 208.8046875 C-7.68621148 205.84437296 -0.27921725 200.02547747 4.3359375 191.45703125 C7.40972348 183.72927355 7.93671535 174.38840362 4.7734375 166.58203125 C0.0801225 157.72236995 -6.75289531 151.75581849 -16.0390625 148.14453125 C-29.87324648 145.5208067 -41.06170442 149.53589677 -50.1953125 160.25390625 Z M29.8046875 160.25390625 C23.94250418 167.95654247 23.49678117 176.01386703 24.3359375 185.45703125 C26.41010455 193.81580027 32.24969132 200.6353332 39.3359375 205.33203125 C46.87912521 209.62384495 54.69956881 210.76799723 63.140625 208.8046875 C72.31378852 205.84437296 79.72078275 200.02547747 84.3359375 191.45703125 C87.40972348 183.72927355 87.93671535 174.38840362 84.7734375 166.58203125 C80.0801225 157.72236995 73.24710469 151.75581849 63.9609375 148.14453125 C50.12675352 145.5208067 38.93829558 149.53589677 29.8046875 160.25390625 Z M-168.9140625 226.70703125 C-174.87621023 234.33076114 -176.38942868 241.08951517 -176.1171875 250.79296875 C-175.45616761 256.13811235 -173.67027743 260.03905793 -170.6640625 264.45703125 C-170.08785156 265.33101563 -170.08785156 265.33101563 -169.5 266.22265625 C-164.95664518 272.34227703 -158.05691364 276.10167521 -150.6640625 277.45703125 C-139.62103343 278.32315118 -131.38705334 276.65989062 -122.74609375 269.5625 C-115.7458938 262.48349855 -113.35985914 255.03960591 -113.34936523 245.29077148 C-113.52388722 236.69169098 -116.66669709 230.54022079 -122.4921875 224.31640625 C-136.76525156 212.09702047 -156.13141514 212.9017721 -168.9140625 226.70703125 Z M-89.4765625 227.26953125 C-95.47810059 234.6686878 -96.28054123 241.25769218 -96.08203125 250.7578125 C-95.47418257 256.13755738 -93.68371784 260.01930572 -90.6640625 264.45703125 C-90.08785156 265.33101563 -90.08785156 265.33101563 -89.5 266.22265625 C-84.95664518 272.34227703 -78.05691364 276.10167521 -70.6640625 277.45703125 C-59.62103343 278.32315118 -51.38705334 276.65989062 -42.74609375 269.5625 C-35.7458938 262.48349855 -33.35985914 255.03960591 -33.34936523 245.29077148 C-33.52388722 236.69169098 -36.66669709 230.54022079 -42.4921875 224.31640625 C-57.29365957 211.64464239 -76.40860496 213.32673137 -89.4765625 227.26953125 Z M-9.4765625 227.26953125 C-15.47810059 234.6686878 -16.28054123 241.25769218 -16.08203125 250.7578125 C-15.47418257 256.13755738 -13.68371784 260.01930572 -10.6640625 264.45703125 C-10.08785156 265.33101563 -10.08785156 265.33101563 -9.5 266.22265625 C-4.95664518 272.34227703 1.94308636 276.10167521 9.3359375 277.45703125 C20.37896657 278.32315118 28.61294666 276.65989062 37.25390625 269.5625 C44.2541062 262.48349855 46.64014086 255.03960591 46.65063477 245.29077148 C46.47611278 236.69169098 43.33330291 230.54022079 37.5078125 224.31640625 C22.70634043 211.64464239 3.59139504 213.32673137 -9.4765625 227.26953125 Z M70.5234375 227.26953125 C65.1757453 233.76228738 62.87886584 241.41573621 63.515625 249.83203125 C64.85786766 258.5976976 68.82301647 265.71463543 75.6484375 271.39453125 C83.72189379 277.0997737 91.5465843 278.38747848 101.3359375 277.45703125 C109.47195552 276.01668356 116.31619113 271.57198962 121.19921875 264.91796875 C126.38290515 256.53004661 127.39741181 249.34007844 126.3359375 239.45703125 C123.44423043 230.3337488 118.34599132 224.05864438 110.2109375 219.18359375 C96.08634902 212.07085455 81.06985347 216.01707907 70.5234375 227.26953125 Z M-209.6640625 295.45703125 C-215.63011073 303.92168087 -217.2653186 312.24361397 -215.6640625 322.45703125 C-213.06337702 330.59830754 -208.77705855 336.71943277 -201.6640625 341.45703125 C-201.02082031 341.88886719 -200.37757813 342.32070313 -199.71484375 342.765625 C-192.77775836 346.58432534 -184.34984956 346.68446291 -176.6640625 345.45703125 C-166.76314624 342.38819521 -160.11915114 336.40095739 -155.2265625 327.39453125 C-152.30004279 319.98238525 -152.35103298 311.61176334 -154.734375 304.0703125 C-158.61895155 295.6112756 -163.88094468 290.00304936 -172.2890625 286.01953125 C-185.77031475 281.2285016 -200.38494493 284.51243103 -209.6640625 295.45703125 Z M-129.6640625 295.45703125 C-135.63011073 303.92168087 -137.2653186 312.24361397 -135.6640625 322.45703125 C-133.06337702 330.59830754 -128.77705855 336.71943277 -121.6640625 341.45703125 C-121.02082031 341.88886719 -120.37757813 342.32070313 -119.71484375 342.765625 C-112.77775836 346.58432534 -104.34984956 346.68446291 -96.6640625 345.45703125 C-86.76314624 342.38819521 -80.11915114 336.40095739 -75.2265625 327.39453125 C-72.30004279 319.98238525 -72.35103298 311.61176334 -74.734375 304.0703125 C-78.61895155 295.6112756 -83.88094468 290.00304936 -92.2890625 286.01953125 C-105.77031475 281.2285016 -120.38494493 284.51243103 -129.6640625 295.45703125 Z M-49.6640625 295.45703125 C-55.63011073 303.92168087 -57.2653186 312.24361397 -55.6640625 322.45703125 C-53.06337702 330.59830754 -48.77705855 336.71943277 -41.6640625 341.45703125 C-41.02082031 341.88886719 -40.37757813 342.32070313 -39.71484375 342.765625 C-32.77775836 346.58432534 -24.34984956 346.68446291 -16.6640625 345.45703125 C-6.76314624 342.38819521 -0.11915114 336.40095739 4.7734375 327.39453125 C7.69995721 319.98238525 7.64896702 311.61176334 5.265625 304.0703125 C1.38104845 295.6112756 -3.88094468 290.00304936 -12.2890625 286.01953125 C-25.77031475 281.2285016 -40.38494493 284.51243103 -49.6640625 295.45703125 Z M30.3359375 295.45703125 C24.36988927 303.92168087 22.7346814 312.24361397 24.3359375 322.45703125 C26.93662298 330.59830754 31.22294145 336.71943277 38.3359375 341.45703125 C38.97917969 341.88886719 39.62242187 342.32070313 40.28515625 342.765625 C47.22224164 346.58432534 55.65015044 346.68446291 63.3359375 345.45703125 C73.23685376 342.38819521 79.88084886 336.40095739 84.7734375 327.39453125 C87.69995721 319.98238525 87.64896702 311.61176334 85.265625 304.0703125 C81.38104845 295.6112756 76.11905532 290.00304936 67.7109375 286.01953125 C54.22968525 281.2285016 39.61505507 284.51243103 30.3359375 295.45703125 Z M110.3359375 295.45703125 C104.36988927 303.92168087 102.7346814 312.24361397 104.3359375 322.45703125 C106.93662298 330.59830754 111.22294145 336.71943277 118.3359375 341.45703125 C118.97917969 341.88886719 119.62242187 342.32070313 120.28515625 342.765625 C127.22224164 346.58432534 135.65015044 346.68446291 143.3359375 345.45703125 C153.23685376 342.38819521 159.88084886 336.40095739 164.7734375 327.39453125 C167.69995721 319.98238525 167.64896702 311.61176334 165.265625 304.0703125 C161.38104845 295.6112756 156.11905532 290.00304936 147.7109375 286.01953125 C134.22968525 281.2285016 119.61505507 284.51243103 110.3359375 295.45703125 Z " fill="#424242" transform="translate(280.6640625,77.54296875)"/>
<path d="M0 0 C2 2 2 2 2.265625 3.875 C2.26046875 4.57625 2.2553125 5.2775 2.25 6 C2.25515625 6.70125 2.2603125 7.4025 2.265625 8.125 C2 10 2 10 0 12 C-1.63432444 12.45974135 -3.28260842 12.87090589 -4.9375 13.25 C-9.20145926 14.43510813 -9.20145926 14.43510813 -12 17.875 C-12.33 18.90625 -12.66 19.9375 -13 21 C-14.76 25.84 -14.76 25.84 -18 28 C-21.62976786 27.92437984 -23.36795962 27.61228912 -26 25.0625 C-27.53976774 20.34696129 -26.64870614 16.60936142 -25 12 C-21.7446573 5.79682254 -17.53895842 2.36544442 -11 0 C-7.0521396 -1.22195679 -4.01271182 -0.98088511 0 0 Z " fill="#414141" transform="translate(380,303)"/>
<path d="M0 0 C2 2 2 2 2.265625 3.875 C2.26046875 4.57625 2.2553125 5.2775 2.25 6 C2.25515625 6.70125 2.2603125 7.4025 2.265625 8.125 C2 10 2 10 0 12 C-1.63432444 12.45974135 -3.28260842 12.87090589 -4.9375 13.25 C-9.20145926 14.43510813 -9.20145926 14.43510813 -12 17.875 C-12.33 18.90625 -12.66 19.9375 -13 21 C-14.76 25.84 -14.76 25.84 -18 28 C-21.62976786 27.92437984 -23.36795962 27.61228912 -26 25.0625 C-27.53976774 20.34696129 -26.64870614 16.60936142 -25 12 C-21.7446573 5.79682254 -17.53895842 2.36544442 -11 0 C-7.0521396 -1.22195679 -4.01271182 -0.98088511 0 0 Z " fill="#414141" transform="translate(300,303)"/>
<path d="M0 0 C2 2 2 2 2.265625 3.875 C2.26046875 4.57625 2.2553125 5.2775 2.25 6 C2.25515625 6.70125 2.2603125 7.4025 2.265625 8.125 C2 10 2 10 0 12 C-1.63432444 12.45974135 -3.28260842 12.87090589 -4.9375 13.25 C-9.20145926 14.43510813 -9.20145926 14.43510813 -12 17.875 C-12.33 18.90625 -12.66 19.9375 -13 21 C-14.76 25.84 -14.76 25.84 -18 28 C-23.44444444 27.55555556 -23.44444444 27.55555556 -26 25 C-27.04575567 19.11762434 -26.59705764 14.14019293 -23.375 9.0625 C-19.20565411 3.60728107 -14.63629085 0.69114151 -7.9609375 -0.75390625 C-5.10983554 -1.11171387 -2.75025531 -0.78578723 0 0 Z " fill="#424242" transform="translate(220,303)"/>
<path d="M0 0 C2 2 2 2 2.265625 3.875 C2.26046875 4.57625 2.2553125 5.2775 2.25 6 C2.25515625 6.70125 2.2603125 7.4025 2.265625 8.125 C2 10 2 10 0 12 C-1.63593369 12.43493949 -3.28385425 12.82568911 -4.9375 13.1875 C-9.38045505 14.41947969 -9.38045505 14.41947969 -11.9375 18.375 C-12.288125 19.57125 -12.63875 20.7675 -13 22 C-14.3125 24.875 -14.3125 24.875 -16 27 C-18.9375 28 -18.9375 28 -22 28 C-24.16015625 26.79296875 -24.16015625 26.79296875 -26 25 C-27.34640384 19.4262841 -26.21631118 13.73541452 -23.390625 8.8203125 C-17.78063088 1.47689323 -9.16068026 -2.61733722 0 0 Z " fill="#414141" transform="translate(140,303)"/>
<path d="M0 0 C2 1.0625 2 1.0625 3 3 C3.62803738 8.86168224 3.62803738 8.86168224 2 11.8125 C-0.58500699 13.3473479 -3.11922324 13.83985877 -6.0625 14.375 C-8.47201691 15.15226352 -9.4425237 16.01039155 -11 18 C-11.9583965 20.2276508 -11.9583965 20.2276508 -12.625 22.625 C-13.91666667 26.91666667 -13.91666667 26.91666667 -15 28 C-20.73611111 28.27314815 -20.73611111 28.27314815 -23 28 C-25.48229236 25.51770764 -25.6972296 24.48185959 -26 21 C-24.82595416 14.2759193 -22.75104129 9.60233636 -17.6875 4.8125 C-11.79251842 0.83681475 -6.99901679 -0.69990168 0 0 Z " fill="#414141" transform="translate(339,234)"/>
<path d="M0 0 C1.74609375 1.30078125 1.74609375 1.30078125 3 3 C3.4375 6.5 3.4375 6.5 3 10 C-0.04382658 13.83786829 -5.40975427 14.16630152 -10 15 C-10.18175781 15.68707031 -10.36351562 16.37414062 -10.55078125 17.08203125 C-10.80214844 17.98308594 -11.05351562 18.88414062 -11.3125 19.8125 C-11.67794922 21.15248047 -11.67794922 21.15248047 -12.05078125 22.51953125 C-13.03699373 25.09667085 -13.81513507 26.34381844 -16 28 C-21.12764505 28.64095563 -21.12764505 28.64095563 -23.6640625 26.77734375 C-26.24619748 23.34204721 -25.44887595 19.09118366 -25 15 C-22.9290533 8.3988574 -17.38202501 3.99452757 -11.5625 0.5625 C-7.75062107 -0.27425391 -3.8634756 -0.67285249 0 0 Z " fill="#424242" transform="translate(299,166)"/>
<path d="M0 0 C2 1.0625 2 1.0625 3 3 C3.62803738 8.86168224 3.62803738 8.86168224 2 11.8125 C-0.58500699 13.3473479 -3.11922324 13.83985877 -6.0625 14.375 C-8.47201691 15.15226352 -9.4425237 16.01039155 -11 18 C-11.9583965 20.2276508 -11.9583965 20.2276508 -12.625 22.625 C-13.91666667 26.91666667 -13.91666667 26.91666667 -15 28 C-20.73611111 28.27314815 -20.73611111 28.27314815 -23 28 C-25.5354674 25.4645326 -25.35408781 24.39793851 -25.4375 20.875 C-25.30620979 13.71968333 -22.64615034 9.57651481 -17.625 4.6875 C-11.68079343 0.86622435 -6.97249223 -0.69724922 0 0 Z " fill="#424242" transform="translate(259,234)"/>
<path d="M0 0 C2 1.0625 2 1.0625 3 3 C3.62803738 8.86168224 3.62803738 8.86168224 2 11.8125 C-0.58500699 13.3473479 -3.11922324 13.83985877 -6.0625 14.375 C-8.47201691 15.15226352 -9.4425237 16.01039155 -11 18 C-11.9583965 20.2276508 -11.9583965 20.2276508 -12.625 22.625 C-13.91666667 26.91666667 -13.91666667 26.91666667 -15 28 C-20.73611111 28.27314815 -20.73611111 28.27314815 -23 28 C-25.5354674 25.4645326 -25.35408781 24.39793851 -25.4375 20.875 C-25.30620979 13.71968333 -22.64615034 9.57651481 -17.625 4.6875 C-11.68079343 0.86622435 -6.97249223 -0.69724922 0 0 Z " fill="#424242" transform="translate(179,234)"/>
<path d="M0 0 C1.74609375 1.30078125 1.74609375 1.30078125 3 3 C3.4375 6.5 3.4375 6.5 3 10 C-0.04382658 13.83786829 -5.40975427 14.16630152 -10 15 C-10.18175781 15.68707031 -10.36351562 16.37414062 -10.55078125 17.08203125 C-10.80214844 17.98308594 -11.05351562 18.88414062 -11.3125 19.8125 C-11.67794922 21.15248047 -11.67794922 21.15248047 -12.05078125 22.51953125 C-13.03699373 25.09667085 -13.81513507 26.34381844 -16 28 C-21.13176711 28.64147089 -21.13176711 28.64147089 -23.66015625 26.7734375 C-26.26545567 23.32502369 -25.55054722 19.10407927 -25 15 C-22.85025524 8.44839692 -17.43294024 3.98749172 -11.625 0.625 C-7.7973581 -0.28634331 -3.89540396 -0.67841305 0 0 Z " fill="#424242" transform="translate(219,166)"/>
<path d="M0 0 C2 2 2 2 2.265625 3.875 C2.26046875 4.57625 2.2553125 5.2775 2.25 6 C2.25515625 6.70125 2.2603125 7.4025 2.265625 8.125 C2 10 2 10 0 12 C-1.63432444 12.45974135 -3.28260842 12.87090589 -4.9375 13.25 C-9.20145926 14.43510813 -9.20145926 14.43510813 -12 17.875 C-12.33 18.90625 -12.66 19.9375 -13 21 C-14.88888889 25.88888889 -14.88888889 25.88888889 -17 28 C-22.23745461 28.55717602 -22.23745461 28.55717602 -24.66796875 26.78125 C-27.23629618 23.34677109 -26.46594783 19.08502209 -26 15 C-23.69590899 8.57279877 -19.0889614 3.98517873 -13.10546875 0.72265625 C-8.90618005 -0.71865805 -4.36284448 -0.62222989 0 0 Z " fill="#424242" transform="translate(260,98)"/>
<path d="M0 0 C0.99 0.66 1.98 1.32 3 2 C3.33396775 5.00570975 3.52374766 7.10153282 3 10 C0.75302169 12.69637398 -1.1661388 13.04663545 -4.5625 14 C-7.98154205 14.99463041 -8.85181223 15.3724144 -11 18 C-11.91614977 19.96530587 -11.91614977 19.96530587 -12.5625 22.0625 C-13.46601756 24.80368039 -13.90700794 25.90700794 -16 28 C-21.2411377 28.55756784 -21.2411377 28.55756784 -23.6640625 26.77734375 C-26.26127497 23.32198798 -25.55082831 19.1061747 -25 15 C-22.85025524 8.44839692 -17.43294024 3.98749172 -11.625 0.625 C-7.77977405 -0.29052999 -3.92723262 -0.50009704 0 0 Z " fill="#424242" transform="translate(419,371)"/>
<path d="M0 0 C0.99 0.66 1.98 1.32 3 2 C3.33396775 5.00570975 3.52374766 7.10153282 3 10 C0.75302169 12.69637398 -1.1661388 13.04663545 -4.5625 14 C-7.98154205 14.99463041 -8.85181223 15.3724144 -11 18 C-11.91614977 19.96530587 -11.91614977 19.96530587 -12.5625 22.0625 C-13.46601756 24.80368039 -13.90700794 25.90700794 -16 28 C-21.2411377 28.55756784 -21.2411377 28.55756784 -23.6640625 26.77734375 C-26.26127497 23.32198798 -25.55082831 19.1061747 -25 15 C-22.85025524 8.44839692 -17.43294024 3.98749172 -11.625 0.625 C-7.77977405 -0.29052999 -3.92723262 -0.50009704 0 0 Z " fill="#424242" transform="translate(339,371)"/>
<path d="M0 0 C0.99 0.66 1.98 1.32 3 2 C3.33396775 5.00570975 3.52374766 7.10153282 3 10 C0.75302169 12.69637398 -1.1661388 13.04663545 -4.5625 14 C-7.98154205 14.99463041 -8.85181223 15.3724144 -11 18 C-11.91614977 19.96530587 -11.91614977 19.96530587 -12.5625 22.0625 C-13.46601756 24.80368039 -13.90700794 25.90700794 -16 28 C-21.2411377 28.55756784 -21.2411377 28.55756784 -23.6640625 26.77734375 C-26.26127497 23.32198798 -25.55082831 19.1061747 -25 15 C-22.85025524 8.44839692 -17.43294024 3.98749172 -11.625 0.625 C-7.77977405 -0.29052999 -3.92723262 -0.50009704 0 0 Z " fill="#424242" transform="translate(259,371)"/>
<path d="M0 0 C0.99 0.66 1.98 1.32 3 2 C3.33396775 5.00570975 3.52374766 7.10153282 3 10 C0.75302169 12.69637398 -1.1661388 13.04663545 -4.5625 14 C-7.98154205 14.99463041 -8.85181223 15.3724144 -11 18 C-11.91614977 19.96530587 -11.91614977 19.96530587 -12.5625 22.0625 C-13.46601756 24.80368039 -13.90700794 25.90700794 -16 28 C-21.2411377 28.55756784 -21.2411377 28.55756784 -23.6640625 26.77734375 C-26.26127497 23.32198798 -25.55082831 19.1061747 -25 15 C-22.85025524 8.44839692 -17.43294024 3.98749172 -11.625 0.625 C-7.77977405 -0.29052999 -3.92723262 -0.50009704 0 0 Z " fill="#424242" transform="translate(179,371)"/>
<path d="M0 0 C0.99 0.66 1.98 1.32 3 2 C3.33396775 5.00570975 3.52374766 7.10153282 3 10 C0.75302169 12.69637398 -1.1661388 13.04663545 -4.5625 14 C-7.98154205 14.99463041 -8.85181223 15.3724144 -11 18 C-11.91614977 19.96530587 -11.91614977 19.96530587 -12.5625 22.0625 C-13.46601756 24.80368039 -13.90700794 25.90700794 -16 28 C-21.2411377 28.55756784 -21.2411377 28.55756784 -23.6640625 26.77734375 C-26.26127497 23.32198798 -25.55082831 19.1061747 -25 15 C-22.85025524 8.44839692 -17.43294024 3.98749172 -11.625 0.625 C-7.77977405 -0.29052999 -3.92723262 -0.50009704 0 0 Z " fill="#424242" transform="translate(99,371)"/>
</svg>
