<?xml version="1.0" encoding="UTF-8"?>
<svg version="1.1" xmlns="http://www.w3.org/2000/svg" width="512" height="484">
<path d="M0 0 C1.28003906 1.15242187 1.28003906 1.15242187 2.5859375 2.328125 C4.89508836 4.31134329 4.89508836 4.31134329 7.77734375 3.734375 C8.82019531 3.40953125 9.86304688 3.0846875 10.9375 2.75 C25.40384865 -0.85517837 41.10474405 -0.59670031 55 5 C56.0209375 5.40089844 57.041875 5.80179688 58.09375 6.21484375 C71.08126305 11.98893138 81.56337286 22.43508214 87.0859375 35.5859375 C88.25101114 38.88876095 89 41.47955378 89 45 C89.58265625 45.08636719 90.1653125 45.17273437 90.765625 45.26171875 C105.02997882 47.70639574 118.23707967 54.35356517 127.4375 65.765625 C134.0975169 75.28944916 136.57438506 84.54708893 137 96 C136.53515625 98.46875 136.53515625 98.46875 136 100 C136.64324219 100.02578125 137.28648437 100.0515625 137.94921875 100.078125 C155.56206291 101.18363876 170.65381126 108.50084963 183 121 C183.63550781 121.61359375 184.27101563 122.2271875 184.92578125 122.859375 C195.70606898 134.04601504 199.50316057 148.08595707 199.24609375 163.22265625 C198.14789798 180.07908973 189.64583713 191.4650756 178 203 C179.31307177 206.54340898 180.89819732 209.57429201 182.9375 212.75 C190.07187335 224.42601101 192.00597491 238.27154138 189.24609375 251.65625 C188.29704319 254.84208247 187.22987253 257.9125075 186 261 C185.71125 261.73605469 185.4225 262.47210938 185.125 263.23046875 C178.79237539 277.39406218 165.88036971 287.76779136 152 294 C141.92707551 297.82358138 131.74919306 300.15348931 120.9375 300.125 C119.82246094 300.13144531 118.70742188 300.13789063 117.55859375 300.14453125 C114 300 114 300 110.28515625 299.38671875 C104.66134543 298.53357098 100.71879886 298.02928979 95.65234375 300.890625 C92.76073708 303.14532737 90.18425418 305.68052479 87.64013672 308.31591797 C85.98378065 310.01665393 84.27321046 311.63705526 82.53515625 313.25390625 C52.63424488 341.46652924 32.42002938 382.5496541 30.85205078 423.90185547 C30.73645353 428.30939988 30.7004313 432.71609162 30.6875 437.125 C30.68373352 437.82781097 30.67996704 438.53062195 30.67608643 439.25473022 C30.64591053 450.36416453 31.76367176 460.87304581 33 472 C8.25 472 -16.5 472 -42 472 C-41.67 467.71 -41.34 463.42 -41 459 C-38.87427894 408.70690578 -55.61028036 367.11248242 -89.5625 330.09765625 C-93.01213574 326.36963363 -96.48644511 322.66779614 -100 319 C-100.58692627 318.36795654 -101.17385254 317.73591309 -101.77856445 317.0847168 C-105.19383398 313.497821 -107.90110515 311.17131612 -112.6875 309.5625 C-123.12214237 305.56625399 -131.53663951 299.25359866 -139 291 C-140.39412109 291.41572266 -140.39412109 291.41572266 -141.81640625 291.83984375 C-143.05261719 292.20207031 -144.28882813 292.56429688 -145.5625 292.9375 C-146.78066406 293.29714844 -147.99882812 293.65679687 -149.25390625 294.02734375 C-170.02179849 299.41963277 -191.5960728 295.66891389 -210.125 285.25 C-224.64532327 276.10498871 -234.40450938 263.2667224 -238.609375 246.58203125 C-240.82217331 231.95543441 -238.4294453 217.91102597 -230.00390625 205.609375 C-225.73051353 200.04480124 -220.98924702 194.92609199 -216 190 C-216.39832031 189.09121094 -216.39832031 189.09121094 -216.8046875 188.1640625 C-223.12309458 173.17514059 -223.49951866 159.34400342 -218 144 C-216.00333894 139.73110965 -213.69251288 135.86342908 -211 132 C-210.55011719 131.34773437 -210.10023438 130.69546875 -209.63671875 130.0234375 C-205.16631046 124.24751174 -198.8914199 120.20407148 -193 116 C-193.27714844 115.22398438 -193.55429688 114.44796875 -193.83984375 113.6484375 C-199.03709698 98.14915563 -199.62914257 83.70949157 -192.4375 68.875 C-183.96549117 52.34173461 -169.61941717 41.70566502 -152.2578125 35.70703125 C-140.9345948 32.4466037 -129.72224129 31.79789239 -118 32 C-117.59910156 31.17757812 -117.19820313 30.35515625 -116.78515625 29.5078125 C-112.75807366 21.59975462 -108.35827275 15.29328188 -102 9 C-101.33613281 8.30261719 -100.67226562 7.60523437 -99.98828125 6.88671875 C-73.87356048 -18.73057877 -29.74767257 -17.36694225 0 0 Z M-53.1875 308.8125 C-58.96593291 311.20678479 -64.74110839 312.23789156 -70.875 313.2890625 C-74.08196437 313.72687745 -74.08196437 313.72687745 -76 316 C-75.09378906 316.88300781 -74.18757812 317.76601563 -73.25390625 318.67578125 C-66.00596868 325.79413116 -59.22340721 332.95630768 -53 341 C-52.30648437 341.88429688 -51.61296875 342.76859375 -50.8984375 343.6796875 C-49.25644528 345.77960583 -47.62350994 347.88578288 -46 350 C-44.93210778 346.79632334 -45.02385663 345.08849408 -45.33984375 341.765625 C-45.43346191 340.72269287 -45.52708008 339.67976074 -45.62353516 338.60522461 C-45.72714355 337.49800049 -45.83075195 336.39077637 -45.9375 335.25 C-46.76745803 325.79105938 -47.27784243 316.49294981 -47 307 C-49.48583366 307 -50.91436434 307.79587149 -53.1875 308.8125 Z M41.4375 312.9375 C33.36927987 314.4706793 25.18745698 314.65773007 17 315 C11.77299004 328.11683633 12.24703603 339.65510436 17.625 352.6875 C18.40567841 354.46320494 19.19338913 356.23592355 20 358 C22.46890272 355.74236926 24.01966751 353.45588596 25.63671875 350.53515625 C26.12769043 349.65819092 26.61866211 348.78122559 27.12451172 347.87768555 C27.64029785 346.94867432 28.15608398 346.01966309 28.6875 345.0625 C34.50548971 334.73394387 40.58740562 324.82864292 47.96875 315.5234375 C49.18685547 314.03057303 49.18685547 314.03057303 49 312 C46.23886582 312 44.11929744 312.36252934 41.4375 312.9375 Z " fill="#54B45C" transform="translate(276,12)"/>
<path d="M0 0 C4.28379643 0.71260094 8.25093853 2.06921736 12.3125 3.5625 C12.95767578 3.79646484 13.60285156 4.03042969 14.26757812 4.27148438 C15.84621219 4.84447007 17.42327026 5.42179464 19 6 C17.50752036 9.71883048 15.47689651 11.41436991 12.3125 13.8125 C-21.3434656 40.78126721 -44.3381392 81.11882181 -49.53515625 124.09765625 C-50.25538931 131.75608908 -50.28995713 139.43903899 -50.3125 147.125 C-50.31626648 147.82781097 -50.32003296 148.53062195 -50.32391357 149.25473022 C-50.35408947 160.36416453 -49.23632824 170.87304581 -48 182 C-72.75 182 -97.5 182 -123 182 C-122.505 175.565 -122.505 175.565 -122 169 C-119.8737381 118.69410986 -136.61964188 77.07378346 -170.59765625 40.0625 C-175.11837384 35.17962874 -179.63551425 30.31191113 -184.41796875 25.68359375 C-187 23 -187 23 -187 21 C-186.23558594 21.13277344 -185.47117188 21.26554687 -184.68359375 21.40234375 C-178.47849887 22.4253257 -172.6054202 23.02405039 -166.3125 23.0625 C-159.24519615 23.46281072 -155.95265021 25.5551721 -151.12890625 30.609375 C-150.42636719 31.39828125 -149.72382813 32.1871875 -149 33 C-147.81737293 34.13012143 -146.63027021 35.25558923 -145.4375 36.375 C-138.60801115 43.31723985 -132.80222549 51.20123081 -127 59 C-127.06582275 58.26587891 -127.13164551 57.53175781 -127.19946289 56.77539062 C-127.82415306 49.64309253 -128.35519206 42.51025358 -128.78955078 35.36376953 C-128.91583234 33.34531559 -129.0555803 31.32753942 -129.22216797 29.31201172 C-129.5889682 24.59728676 -129.66519717 20.51441441 -128 16 C-124.59189183 12.07031812 -120.20816354 9.51471402 -115.70898438 7.00976562 C-113.27786002 5.57331843 -111.15022179 3.82194366 -109 2 C-108.51273437 2.4846875 -108.02546875 2.969375 -107.5234375 3.46875 C-95.03349878 15.27741934 -80.67927178 20.91124597 -64 24 C-64.4640625 25.85625 -64.4640625 25.85625 -64.9375 27.75 C-67.92489525 41.46192929 -67.05642557 53.25790983 -61 66 C-60.67 66.33 -60.34 66.66 -60 67 C-59.10861328 65.34677734 -59.10861328 65.34677734 -58.19921875 63.66015625 C-50.54638649 49.5995024 -42.56747028 35.12704605 -32 23 C-31.4328125 22.34 -30.865625 21.68 -30.28125 21 C-27.31195586 18.39678322 -23.99448033 16.93451311 -20.4375 15.3125 C-8.4836935 9.63489192 -8.4836935 9.63489192 0 0 Z " fill="#7B3D39" transform="translate(357,302)"/>
<path d="M0 0 C0.46148437 0.35191406 0.92296875 0.70382812 1.3984375 1.06640625 C3.5890362 2.72450764 5.79437445 4.36194585 8 6 C8.77085937 6.5878125 9.54171875 7.175625 10.3359375 7.78125 C21.20113574 15.79828947 33.04226396 19.05655488 46 22 C45.67 23.32 45.34 24.64 45 26 C29.8547729 24.14151975 16.04431992 19.30786826 4.5625 9 C2.29104555 6.76000667 2.29104555 6.76000667 0.11328125 7.16015625 C-2.4912629 8.19523387 -4.23495488 9.63160228 -6.375 11.4375 C-9.79959456 14.19981759 -12.64117542 15.9941174 -17 17 C-17 15.68 -17 14.36 -17 13 C-14.93580498 11.30568964 -12.99538733 9.90877621 -10.75 8.5 C-6.80690882 5.9608226 -3.19372236 3.47831148 0 0 Z " fill="#6C322D" transform="translate(247,304)"/>
<path d="M0 0 C4.28379643 0.71260094 8.25093853 2.06921736 12.3125 3.5625 C12.95767578 3.79646484 13.60285156 4.03042969 14.26757812 4.27148438 C15.84621219 4.84447007 17.42327026 5.42179464 19 6 C18.67 6.99 18.34 7.98 18 9 C16.58249437 8.88490339 15.16598831 8.75746342 13.75 8.625 C12.96109375 8.55539062 12.1721875 8.48578125 11.359375 8.4140625 C9 8 9 8 7.015625 6.8984375 C4.24955423 5.66549898 2.83953511 6.03420201 0 7 C-2.00124376 8.56251634 -2.00124376 8.56251634 -3.875 10.5625 C-7.81562476 14.22589488 -11.84856085 16.85531934 -16.5625 19.375 C-17.17528809 19.70830322 -17.78807617 20.04160645 -18.41943359 20.38500977 C-22.84749253 22.68036371 -27.12909025 23.9343203 -32 25 C-29.80692427 19.21825489 -24.09024373 17.5274704 -18.875 14.875 C-7.87728967 9.07221545 -7.87728967 9.07221545 0 0 Z " fill="#6C322E" transform="translate(357,302)"/>
<path d="M0 0 C0.76441406 0.13277344 1.52882812 0.26554687 2.31640625 0.40234375 C9.86510946 1.64683513 17.25179946 2.33895216 24.8828125 2.65625 C28 3 28 3 31 5 C31 5.66 31 6.32 31 7 C27.85434954 7.08845016 24.70902625 7.14086835 21.5625 7.1875 C20.68400391 7.21263672 19.80550781 7.23777344 18.90039062 7.26367188 C13.04746327 7.32846443 7.17768776 7.00451144 2 4 C0.75219727 1.89135742 0.75219727 1.89135742 0 0 Z " fill="#6D3931" transform="translate(170,323)"/>
<path d="M0 0 C0.66 0.33 1.32 0.66 2 1 C-3.61 6.61 -9.22 12.22 -15 18 C-15 13.07254925 -11.31913617 10.39978807 -8 7 C-5.39491779 4.58973264 -2.72918126 2.2684104 0 0 Z " fill="#94D09A" transform="translate(104,57)"/>
<path d="M0 0 C0.66 0 1.32 0 2 0 C1.4194679 3.30118794 0.45131901 4.91134076 -1.94140625 7.234375 C-2.52470703 7.80800781 -3.10800781 8.38164062 -3.70898438 8.97265625 C-4.32064453 9.55917969 -4.93230469 10.14570313 -5.5625 10.75 C-6.17802734 11.35199219 -6.79355469 11.95398438 -7.42773438 12.57421875 C-8.94514813 14.05634381 -10.47170596 15.5290967 -12 17 C-12 12.92092669 -10.43302134 11.94256832 -7.6875 9 C-6.88699219 8.13375 -6.08648437 7.2675 -5.26171875 6.375 C-3.93209191 4.978777 -2.58679574 3.59669824 -1.20703125 2.25 C0.11577244 1.1697144 0.11577244 1.1697144 0 0 Z " fill="#93CF98" transform="translate(60,201)"/>
</svg>
